<svg width="1440" height="469" viewBox="0 0 1440 469" fill="none" xmlns="http://www.w3.org/2000/svg">
<path d="M624.938 449.676C623.66 449.146 622.618 448.328 621.811 447.224C621.016 446.125 620.523 444.896 620.33 443.538C620.154 442.173 620.338 440.834 620.883 439.521L621.569 437.867C621.622 437.738 621.708 437.698 621.825 437.747L625.871 439.425C625.965 439.464 625.985 439.547 625.931 439.676L625.245 441.33C624.92 442.116 624.901 442.905 625.191 443.699C625.485 444.48 626.001 445.025 626.74 445.331C627.491 445.642 628.249 445.62 629.015 445.264C629.786 444.897 630.329 444.332 630.646 443.57C631.01 442.69 630.754 441.684 629.877 440.55C629.738 440.355 629.551 440.112 629.314 439.822C629.094 439.524 628.824 439.179 628.506 438.786C628.188 438.393 627.88 438.011 627.58 437.639C627.286 437.256 626.998 436.889 626.717 436.539C625.725 435.22 625.147 433.847 624.983 432.418C624.836 430.983 625.065 429.538 625.668 428.084C626.222 426.747 627.051 425.676 628.156 424.869C629.255 424.074 630.461 423.585 631.774 423.401C633.104 423.211 634.39 423.373 635.633 423.889C636.912 424.419 637.953 425.222 638.757 426.298C639.557 427.385 640.052 428.594 640.243 429.924C640.445 431.258 640.272 432.588 639.722 433.913L638.496 436.868C638.458 436.962 638.391 436.99 638.297 436.951L634.252 435.273C634.158 435.234 634.13 435.167 634.169 435.074L635.36 432.104C635.71 431.26 635.731 430.464 635.422 429.718C635.113 428.971 634.595 428.447 633.868 428.145C633.129 427.839 632.379 427.858 631.618 428.202C630.857 428.546 630.316 429.105 629.995 429.879C629.669 430.664 629.561 431.389 629.67 432.053C629.791 432.722 630.198 433.482 630.89 434.332C630.964 434.418 631.132 434.625 631.395 434.954C631.657 435.282 631.945 435.649 632.258 436.054C632.588 436.452 632.884 436.815 633.146 437.144C633.413 437.461 633.574 437.651 633.63 437.716C634.549 438.88 635.153 440.093 635.441 441.353C635.741 442.618 635.596 443.96 635.008 445.379C634.439 446.751 633.612 447.851 632.526 448.679C631.429 449.502 630.215 450.009 628.885 450.199C627.556 450.39 626.24 450.216 624.938 449.676Z" fill="url(#paint0_linear_339_264)"/>
<mask id="mask0_339_264" style="mask-type:alpha" maskUnits="userSpaceOnUse" x="0" y="74" width="1440" height="340">
<rect y="74.4016" width="1440" height="339" fill="#808080"/>
</mask>
<g mask="url(#mask0_339_264)">
<circle cx="1317.5" cy="354.902" r="8" stroke="#4BDDA0"/>
<circle cx="639" cy="298.402" r="17.5" stroke="#C03FB2"/>
<circle cx="1010.5" cy="116.902" r="7" stroke="#C03FB2"/>
<circle cx="124" cy="264.402" r="5.5" stroke="#75F7FF"/>
<circle cx="1181.5" cy="393.902" r="11" stroke="#C03FB2"/>
<circle cx="187" cy="311.402" r="15.5" stroke="#75F7FF"/>
<circle cx="1291" cy="152.402" r="9.5" stroke="#75F7FF"/>
<circle cx="262" cy="259.402" r="14.5" stroke="#75F7FF"/>
<circle cx="194.5" cy="363.902" r="6" stroke="#9C27B0"/>
<circle cx="90" cy="348.402" r="20.5" stroke="#9C27B0" stroke-width="3"/>
<circle cx="1304.5" cy="90.9016" r="10" stroke="#9665FD"/>
<circle cx="139" cy="228.402" r="7.5" stroke="#9665FD"/>
<circle cx="1239" cy="113.402" r="16.5" stroke="#9C27B0"/>
<circle cx="903.5" cy="327.902" r="5" stroke="#4BDDA0"/>
<circle cx="841" cy="327.402" r="10.5" stroke="#9C27B0"/>
<circle cx="471" cy="298.402" r="12.5" stroke="#C03FB2" stroke-width="3"/>
<circle cx="146.5" cy="177.902" r="7" stroke="#9C27B0"/>
<circle cx="1286.5" cy="312.902" r="16" stroke="#75F7FF" stroke-width="3"/>
<circle cx="76.5" cy="181.902" r="8" stroke="#87A9C2"/>
<circle cx="595.5" cy="110.902" r="15" stroke="#75F7FF"/>
<circle cx="529" cy="381.402" r="7.5" stroke="#9C27B0"/>
<circle cx="1366.5" cy="390.902" r="5" stroke="#4BDDA0"/>
<circle cx="1427" cy="350.402" r="17.5" stroke="#75F7FF" stroke-width="3"/>
<circle cx="834.5" cy="100.902" r="16" stroke="#9C27B0"/>
<circle cx="568.5" cy="383.902" r="22" stroke="#75F7FF"/>
<circle cx="1446" cy="363.402" r="6.5" stroke="#75F7FF"/>
<mask id="path-29-inside-1_339_264" fill="white">
<path fill-rule="evenodd" clip-rule="evenodd" d="M252.33 357.792C252.941 356.252 254.684 355.498 256.225 356.109L262.831 358.729L265.429 352.178C266.002 350.734 267.636 350.028 269.08 350.6C270.524 351.173 271.231 352.808 270.658 354.252L268.06 360.803L274.977 363.546C276.517 364.157 277.27 365.901 276.659 367.441L276.541 367.738C275.931 369.278 274.187 370.031 272.647 369.42L265.73 366.677L263.083 373.352C262.51 374.796 260.875 375.502 259.432 374.93C257.988 374.357 257.281 372.722 257.854 371.278L260.501 364.604L253.895 361.984C252.355 361.373 251.601 359.629 252.212 358.089L252.33 357.792Z"/>
</mask>
<path fill-rule="evenodd" clip-rule="evenodd" d="M252.33 357.792C252.941 356.252 254.684 355.498 256.225 356.109L262.831 358.729L265.429 352.178C266.002 350.734 267.636 350.028 269.08 350.6C270.524 351.173 271.231 352.808 270.658 354.252L268.06 360.803L274.977 363.546C276.517 364.157 277.27 365.901 276.659 367.441L276.541 367.738C275.931 369.278 274.187 370.031 272.647 369.42L265.73 366.677L263.083 373.352C262.51 374.796 260.875 375.502 259.432 374.93C257.988 374.357 257.281 372.722 257.854 371.278L260.501 364.604L253.895 361.984C252.355 361.373 251.601 359.629 252.212 358.089L252.33 357.792Z" fill="#6526B3"/>
<path d="M256.225 356.109L251.801 367.264L251.801 367.264L256.225 356.109ZM252.33 357.792L263.485 362.216L263.485 362.216L252.33 357.792ZM262.831 358.729L258.407 369.884L269.562 374.308L273.986 363.153L262.831 358.729ZM265.429 352.178L276.584 356.602L276.584 356.602L265.429 352.178ZM270.658 354.252L259.503 349.828L259.503 349.828L270.658 354.252ZM268.06 360.803L256.905 356.379L252.481 367.534L263.636 371.958L268.06 360.803ZM274.977 363.546L279.4 352.391L279.4 352.391L274.977 363.546ZM276.659 367.441L265.505 363.017L265.504 363.017L276.659 367.441ZM276.541 367.738L287.696 372.162L287.696 372.162L276.541 367.738ZM272.647 369.42L277.071 358.266L277.071 358.266L272.647 369.42ZM265.73 366.677L270.154 355.523L258.999 351.099L254.575 362.253L265.73 366.677ZM263.083 373.352L274.238 377.776L274.238 377.776L263.083 373.352ZM259.432 374.93L263.855 363.775L259.432 374.93ZM257.854 371.278L246.699 366.854L246.699 366.854L257.854 371.278ZM260.501 364.604L271.656 369.027L276.08 357.873L264.925 353.449L260.501 364.604ZM253.895 361.984L258.319 350.829L258.319 350.829L253.895 361.984ZM252.212 358.089L241.057 353.665L241.057 353.665L252.212 358.089ZM260.649 344.954C252.948 341.9 244.229 345.667 241.175 353.368L263.485 362.216C261.652 366.836 256.421 369.096 251.801 367.264L260.649 344.954ZM267.255 347.574L260.649 344.954L251.801 367.264L258.407 369.884L267.255 347.574ZM254.274 347.754L251.676 354.305L273.986 363.153L276.584 356.602L254.274 347.754ZM273.504 339.446C265.9 336.43 257.29 340.15 254.274 347.754L276.584 356.602C274.713 361.319 269.373 363.626 264.656 361.755L273.504 339.446ZM281.813 358.676C284.829 351.071 281.109 342.462 273.504 339.446L264.656 361.755C259.94 359.885 257.633 354.545 259.503 349.828L281.813 358.676ZM279.215 365.227L281.813 358.676L259.503 349.828L256.905 356.379L279.215 365.227ZM279.4 352.391L272.484 349.648L263.636 371.958L270.553 374.701L279.4 352.391ZM287.814 371.865C290.868 364.164 287.101 355.445 279.4 352.391L270.553 374.701C265.932 372.868 263.672 367.637 265.505 363.017L287.814 371.865ZM287.696 372.162L287.814 371.865L265.504 363.017L265.387 363.314L287.696 372.162ZM268.223 380.575C275.924 383.629 284.642 379.862 287.696 372.162L265.387 363.314C267.219 358.693 272.45 356.433 277.071 358.266L268.223 380.575ZM261.306 377.832L268.223 380.575L277.071 358.266L270.154 355.523L261.306 377.832ZM274.238 377.776L276.885 371.101L254.575 362.253L251.928 368.928L274.238 377.776ZM255.008 386.085C262.612 389.101 271.222 385.381 274.238 377.776L251.928 368.928C253.799 364.212 259.139 361.904 263.855 363.775L255.008 386.085ZM246.699 366.854C243.683 374.459 247.403 383.069 255.008 386.085L263.855 363.775C268.572 365.646 270.879 370.986 269.009 375.702L246.699 366.854ZM249.346 360.18L246.699 366.854L269.009 375.702L271.656 369.027L249.346 360.18ZM249.471 373.138L256.077 375.758L264.925 353.449L258.319 350.829L249.471 373.138ZM241.057 353.665C238.003 361.366 241.77 370.084 249.471 373.138L258.319 350.829C262.939 352.661 265.199 357.892 263.367 362.513L241.057 353.665ZM241.175 353.368L241.057 353.665L263.367 362.513L263.485 362.216L241.175 353.368Z" fill="#75F7FF" mask="url(#path-29-inside-1_339_264)"/>
<path fill-rule="evenodd" clip-rule="evenodd" d="M1193.19 133.586C1193.53 132.714 1194.51 132.287 1195.38 132.633L1199.1 134.117L1200.56 130.407C1200.88 129.59 1201.8 129.19 1202.61 129.514C1203.43 129.838 1203.82 130.764 1203.5 131.582L1202.04 135.291L1205.93 136.844C1206.8 137.19 1207.22 138.177 1206.88 139.049L1206.81 139.217C1206.47 140.089 1205.49 140.516 1204.62 140.17L1200.73 138.617L1199.24 142.396C1198.92 143.213 1198 143.613 1197.18 143.289C1196.37 142.965 1195.97 142.039 1196.3 141.222L1197.79 137.442L1194.07 135.959C1193.2 135.613 1192.78 134.626 1193.12 133.754L1193.19 133.586Z" fill="#9C27B0"/>
<rect x="174.276" y="226.055" width="47" height="46" transform="rotate(22.5262 174.276 226.055)" stroke="#9C27B0"/>
<rect x="1317.28" y="89.055" width="47" height="46" transform="rotate(22.5262 1317.28 89.055)" stroke="#9C27B0"/>
<path d="M180.167 266.93L175.805 265.121C175.699 265.077 175.665 264.994 175.702 264.872L181.71 238.357C181.725 238.254 181.78 238.222 181.873 238.26L185.919 239.938C186.013 239.977 186.052 240.049 186.037 240.152L181.593 257.379L190.716 242.093C190.778 242.009 190.868 241.991 190.985 242.04L194.239 243.389C194.333 243.428 194.372 243.499 194.357 243.603L189.948 260.844L199.036 245.543C199.098 245.459 199.176 245.437 199.27 245.476L203.281 247.139C203.398 247.188 203.425 247.254 203.363 247.338L188.806 270.307C188.775 270.349 188.723 270.376 188.65 270.387L188.557 270.41L184.195 268.601C184.125 268.572 184.09 268.489 184.092 268.352L187.607 254.657L180.416 266.827C180.355 266.94 180.272 266.974 180.167 266.93Z" fill="url(#paint1_linear_339_264)"/>
<path d="M1324.96 130.632L1318.49 127.99C1318.37 127.941 1318.34 127.858 1318.38 127.741L1328.72 103.021C1328.76 102.927 1328.83 102.9 1328.92 102.938L1335.67 105.697C1337.02 106.217 1338.1 107.023 1338.91 108.115C1339.74 109.212 1340.24 110.446 1340.43 111.816C1340.64 113.179 1340.46 114.523 1339.91 115.848L1335.62 126.191C1335.05 127.574 1334.19 128.702 1333.05 129.574C1331.89 130.43 1330.61 130.964 1329.21 131.177C1327.8 131.379 1326.39 131.197 1324.96 130.632ZM1333.88 110.007L1331.35 108.999L1324.55 125.308L1326.78 126.234C1327.67 126.604 1328.55 126.605 1329.42 126.236C1330.29 125.867 1330.9 125.249 1331.26 124.381L1335.57 114.003C1335.88 113.241 1335.88 112.462 1335.55 111.665C1335.22 110.857 1334.67 110.305 1333.88 110.007Z" fill="url(#paint2_linear_339_264)"/>
</g>
<rect x="617.276" y="407.653" width="47" height="46" transform="rotate(22.5262 617.276 407.653)" stroke="#9C27B0"/>
<path fill-rule="evenodd" clip-rule="evenodd" d="M1116.66 47.3255C1129.73 47.3255 1140.33 36.7314 1140.33 23.6628C1140.33 10.5942 1129.73 0 1116.66 0C1103.59 0 1093 10.5942 1093 23.6628C1093 36.7314 1103.59 47.3255 1116.66 47.3255ZM1116.66 38.545C1124.88 38.545 1131.55 31.882 1131.55 23.6628C1131.55 15.4435 1124.88 8.78052 1116.66 8.78052C1108.44 8.78052 1101.78 15.4435 1101.78 23.6628C1101.78 31.882 1108.44 38.545 1116.66 38.545Z" fill="#FF54DA" fill-opacity="0.75"/>
<defs>
<linearGradient id="paint0_linear_339_264" x1="626.243" y1="410.831" x2="648.272" y2="419.968" gradientUnits="userSpaceOnUse">
<stop stop-color="#DFE4FE"/>
<stop offset="1" stop-color="#B28DF9"/>
</linearGradient>
<linearGradient id="paint1_linear_339_264" x1="183.243" y1="229.233" x2="205.272" y2="238.369" gradientUnits="userSpaceOnUse">
<stop stop-color="#DFE4FE"/>
<stop offset="1" stop-color="#B28DF9"/>
</linearGradient>
<linearGradient id="paint2_linear_339_264" x1="1326.24" y1="92.2327" x2="1348.27" y2="101.369" gradientUnits="userSpaceOnUse">
<stop stop-color="#DFE4FE"/>
<stop offset="1" stop-color="#B28DF9"/>
</linearGradient>
</defs>
</svg>
