<svg width="1440" height="340" viewBox="0 0 1440 340" fill="none" xmlns="http://www.w3.org/2000/svg">
<mask id="mask0_121_67" style="mask-type:alpha" maskUnits="userSpaceOnUse" x="0" y="0" width="1440" height="340">
<rect y="0.401611" width="1440" height="339" fill="#808080"/>
</mask>
<g mask="url(#mask0_121_67)">
<circle cx="1317.5" cy="280.902" r="8" stroke="#4BDDA0"/>
<circle cx="639" cy="224.402" r="17.5" stroke="#C03FB2"/>
<circle cx="1010.5" cy="42.9016" r="7" stroke="#C03FB2"/>
<circle cx="124" cy="190.402" r="5.5" stroke="#75F7FF"/>
<circle cx="1181.5" cy="319.902" r="11" stroke="#C03FB2"/>
<circle cx="187" cy="237.402" r="15.5" stroke="#75F7FF"/>
<circle cx="1291" cy="78.4016" r="9.5" stroke="#75F7FF"/>
<circle cx="262" cy="185.402" r="14.5" stroke="#75F7FF"/>
<circle cx="194.5" cy="289.902" r="6" stroke="#9C27B0"/>
<circle cx="90" cy="274.402" r="20.5" stroke="#9C27B0" stroke-width="3"/>
<circle cx="1304.5" cy="16.9016" r="10" stroke="#9665FD"/>
<circle cx="139" cy="154.402" r="7.5" stroke="#9665FD"/>
<circle cx="1239" cy="39.4016" r="16.5" stroke="#9C27B0"/>
<circle cx="903.5" cy="253.902" r="5" stroke="#4BDDA0"/>
<circle cx="841" cy="253.402" r="10.5" stroke="#9C27B0"/>
<circle cx="471" cy="224.402" r="12.5" stroke="#C03FB2" stroke-width="3"/>
<circle cx="146.5" cy="103.902" r="7" stroke="#9C27B0"/>
<circle cx="1286.5" cy="238.902" r="16" stroke="#75F7FF" stroke-width="3"/>
<circle cx="76.5" cy="107.902" r="8" stroke="#87A9C2"/>
<circle cx="595.5" cy="36.9016" r="15" stroke="#75F7FF"/>
<circle cx="529" cy="307.402" r="7.5" stroke="#9C27B0"/>
<circle cx="1366.5" cy="316.902" r="5" stroke="#4BDDA0"/>
<circle cx="1427" cy="276.402" r="17.5" stroke="#75F7FF" stroke-width="3"/>
<circle cx="834.5" cy="26.9016" r="16" stroke="#9C27B0"/>
<circle cx="568.5" cy="309.902" r="22" stroke="#75F7FF"/>
<circle cx="1446" cy="289.402" r="6.5" stroke="#75F7FF"/>
<mask id="path-28-inside-1_121_67" fill="white">
<path fill-rule="evenodd" clip-rule="evenodd" d="M252.33 283.792C252.941 282.252 254.684 281.498 256.225 282.109L262.831 284.729L265.429 278.178C266.002 276.734 267.636 276.028 269.08 276.6C270.524 277.173 271.231 278.808 270.658 280.252L268.06 286.803L274.977 289.546C276.517 290.157 277.27 291.901 276.659 293.441L276.541 293.738C275.931 295.278 274.187 296.031 272.647 295.42L265.73 292.677L263.083 299.352C262.51 300.796 260.875 301.502 259.432 300.93C257.988 300.357 257.281 298.722 257.854 297.278L260.501 290.604L253.895 287.984C252.355 287.373 251.601 285.629 252.212 284.089L252.33 283.792Z"/>
</mask>
<path fill-rule="evenodd" clip-rule="evenodd" d="M252.33 283.792C252.941 282.252 254.684 281.498 256.225 282.109L262.831 284.729L265.429 278.178C266.002 276.734 267.636 276.028 269.08 276.6C270.524 277.173 271.231 278.808 270.658 280.252L268.06 286.803L274.977 289.546C276.517 290.157 277.27 291.901 276.659 293.441L276.541 293.738C275.931 295.278 274.187 296.031 272.647 295.42L265.73 292.677L263.083 299.352C262.51 300.796 260.875 301.502 259.432 300.93C257.988 300.357 257.281 298.722 257.854 297.278L260.501 290.604L253.895 287.984C252.355 287.373 251.601 285.629 252.212 284.089L252.33 283.792Z" fill="#6526B3"/>
<path d="M256.225 282.109L251.801 293.264L251.801 293.264L256.225 282.109ZM252.33 283.792L263.485 288.216L263.485 288.216L252.33 283.792ZM262.831 284.729L258.407 295.884L269.562 300.308L273.986 289.153L262.831 284.729ZM265.429 278.178L276.584 282.602L276.584 282.602L265.429 278.178ZM270.658 280.252L259.503 275.828L259.503 275.828L270.658 280.252ZM268.06 286.803L256.905 282.379L252.481 293.534L263.636 297.958L268.06 286.803ZM274.977 289.546L279.4 278.391L279.4 278.391L274.977 289.546ZM276.659 293.441L265.505 289.017L265.504 289.017L276.659 293.441ZM276.541 293.738L287.696 298.162L287.696 298.162L276.541 293.738ZM272.647 295.42L277.071 284.266L277.071 284.266L272.647 295.42ZM265.73 292.677L270.154 281.523L258.999 277.099L254.575 288.253L265.73 292.677ZM263.083 299.352L274.238 303.776L274.238 303.776L263.083 299.352ZM259.432 300.93L263.855 289.775L259.432 300.93ZM257.854 297.278L246.699 292.854L246.699 292.854L257.854 297.278ZM260.501 290.604L271.656 295.027L276.08 283.873L264.925 279.449L260.501 290.604ZM253.895 287.984L258.319 276.829L258.319 276.829L253.895 287.984ZM252.212 284.089L241.057 279.665L241.057 279.665L252.212 284.089ZM260.649 270.954C252.948 267.9 244.229 271.667 241.175 279.368L263.485 288.216C261.652 292.836 256.421 295.096 251.801 293.264L260.649 270.954ZM267.255 273.574L260.649 270.954L251.801 293.264L258.407 295.884L267.255 273.574ZM254.274 273.754L251.676 280.305L273.986 289.153L276.584 282.602L254.274 273.754ZM273.504 265.446C265.9 262.43 257.29 266.15 254.274 273.754L276.584 282.602C274.713 287.319 269.373 289.626 264.656 287.755L273.504 265.446ZM281.813 284.676C284.829 277.071 281.109 268.462 273.504 265.446L264.656 287.755C259.94 285.885 257.633 280.545 259.503 275.828L281.813 284.676ZM279.215 291.227L281.813 284.676L259.503 275.828L256.905 282.379L279.215 291.227ZM279.4 278.391L272.484 275.648L263.636 297.958L270.553 300.701L279.4 278.391ZM287.814 297.865C290.868 290.164 287.101 281.445 279.4 278.391L270.553 300.701C265.932 298.868 263.672 293.637 265.505 289.017L287.814 297.865ZM287.696 298.162L287.814 297.865L265.504 289.017L265.387 289.314L287.696 298.162ZM268.223 306.575C275.924 309.629 284.642 305.862 287.696 298.162L265.387 289.314C267.219 284.693 272.45 282.433 277.071 284.266L268.223 306.575ZM261.306 303.832L268.223 306.575L277.071 284.266L270.154 281.523L261.306 303.832ZM274.238 303.776L276.885 297.101L254.575 288.253L251.928 294.928L274.238 303.776ZM255.008 312.085C262.612 315.101 271.222 311.381 274.238 303.776L251.928 294.928C253.799 290.212 259.139 287.904 263.855 289.775L255.008 312.085ZM246.699 292.854C243.683 300.459 247.403 309.069 255.008 312.085L263.855 289.775C268.572 291.646 270.879 296.986 269.009 301.702L246.699 292.854ZM249.346 286.18L246.699 292.854L269.009 301.702L271.656 295.027L249.346 286.18ZM249.471 299.138L256.077 301.758L264.925 279.449L258.319 276.829L249.471 299.138ZM241.057 279.665C238.003 287.366 241.77 296.084 249.471 299.138L258.319 276.829C262.939 278.661 265.199 283.892 263.367 288.513L241.057 279.665ZM241.175 279.368L241.057 279.665L263.367 288.513L263.485 288.216L241.175 279.368Z" fill="#75F7FF" mask="url(#path-28-inside-1_121_67)"/>
<path fill-rule="evenodd" clip-rule="evenodd" d="M1193.19 59.5858C1193.53 58.7138 1194.51 58.2873 1195.38 58.6331L1199.1 60.1165L1200.56 56.4074C1200.88 55.5899 1201.8 55.19 1202.61 55.5142C1203.43 55.8384 1203.82 56.764 1203.5 57.5816L1202.04 61.2907L1205.93 62.8438C1206.8 63.1896 1207.22 64.1769 1206.88 65.0489L1206.81 65.217C1206.47 66.089 1205.49 66.5156 1204.62 66.1697L1200.73 64.6166L1199.24 68.3958C1198.92 69.2133 1198 69.6133 1197.18 69.289C1196.37 68.9648 1195.97 68.0392 1196.3 67.2216L1197.79 63.4425L1194.07 61.9591C1193.2 61.6133 1192.78 60.626 1193.12 59.754L1193.19 59.5858Z" fill="#9C27B0"/>
<rect x="174.276" y="152.055" width="47" height="46" transform="rotate(22.5262 174.276 152.055)" stroke="#9C27B0"/>
<rect x="1317.28" y="15.055" width="47" height="46" transform="rotate(22.5262 1317.28 15.055)" stroke="#9C27B0"/>
<rect x="617.276" y="312.055" width="47" height="46" transform="rotate(22.5262 617.276 312.055)" stroke="#9C27B0"/>
<path d="M180.167 192.93L175.805 191.121C175.699 191.077 175.665 190.994 175.702 190.872L181.71 164.357C181.725 164.254 181.78 164.222 181.873 164.26L185.919 165.938C186.013 165.977 186.052 166.049 186.037 166.152L181.593 183.379L190.716 168.093C190.778 168.009 190.868 167.991 190.985 168.04L194.239 169.389C194.333 169.428 194.372 169.499 194.357 169.603L189.948 186.844L199.036 171.543C199.098 171.459 199.176 171.437 199.27 171.476L203.281 173.139C203.398 173.188 203.425 173.254 203.363 173.338L188.806 196.307C188.775 196.349 188.723 196.376 188.65 196.387L188.557 196.41L184.195 194.601C184.125 194.572 184.09 194.489 184.092 194.352L187.607 180.657L180.416 192.827C180.355 192.94 180.272 192.974 180.167 192.93Z" fill="url(#paint0_linear_121_67)"/>
<path d="M1324.96 56.6319L1318.49 53.9897C1318.37 53.941 1318.34 53.8581 1318.38 53.7408L1328.72 29.0208C1328.76 28.927 1328.83 28.8995 1328.92 28.9384L1335.67 31.6974C1337.02 32.2167 1338.1 33.0225 1338.91 34.115C1339.74 35.2122 1340.24 36.4458 1340.43 37.8156C1340.64 39.1786 1340.46 40.5226 1339.91 41.8477L1335.62 52.1907C1335.05 53.5744 1334.19 54.7023 1333.05 55.5743C1331.89 56.4297 1330.61 56.964 1329.21 57.1772C1327.8 57.3788 1326.39 57.197 1324.96 56.6319ZM1333.88 36.007L1331.35 34.9989L1324.55 51.3079L1326.78 52.2344C1327.67 52.6041 1328.55 52.6046 1329.42 52.236C1330.29 51.8674 1330.9 51.2492 1331.26 50.3814L1335.57 40.0032C1335.88 39.241 1335.88 38.4617 1335.55 37.6654C1335.22 36.8573 1334.67 36.3045 1333.88 36.007Z" fill="url(#paint1_linear_121_67)"/>
<path d="M624.938 354.077C623.66 353.547 622.618 352.73 621.811 351.626C621.016 350.527 620.523 349.298 620.33 347.94C620.154 346.575 620.338 345.236 620.883 343.922L621.569 342.269C621.622 342.14 621.708 342.1 621.825 342.148L625.871 343.826C625.965 343.865 625.985 343.949 625.931 344.078L625.245 345.732C624.92 346.517 624.901 347.307 625.191 348.1C625.485 348.882 626.001 349.426 626.74 349.733C627.491 350.044 628.249 350.022 629.015 349.666C629.786 349.298 630.329 348.734 630.646 347.971C631.01 347.092 630.754 346.085 629.877 344.952C629.738 344.757 629.551 344.514 629.314 344.223C629.094 343.926 628.824 343.581 628.506 343.188C628.188 342.795 627.88 342.412 627.58 342.041C627.286 341.657 626.998 341.291 626.717 340.941C625.725 339.622 625.147 338.248 624.983 336.82C624.836 335.385 625.065 333.94 625.668 332.486C626.222 331.149 627.051 330.077 628.156 329.271C629.255 328.476 630.461 327.987 631.774 327.803C633.104 327.612 634.39 327.775 635.633 328.29C636.912 328.82 637.953 329.623 638.757 330.699C639.557 331.787 640.052 332.995 640.243 334.325C640.445 335.66 640.272 336.99 639.722 338.315L638.496 341.27C638.458 341.364 638.391 341.391 638.297 341.352L634.252 339.674C634.158 339.635 634.13 339.569 634.169 339.475L635.36 336.506C635.71 335.661 635.731 334.866 635.422 334.119C635.113 333.373 634.595 332.849 633.868 332.547C633.129 332.241 632.379 332.259 631.618 332.603C630.857 332.947 630.316 333.506 629.995 334.28C629.669 335.066 629.561 335.791 629.67 336.455C629.791 337.124 630.198 337.883 630.89 338.734C630.964 338.819 631.132 339.027 631.395 339.355C631.657 339.684 631.945 340.051 632.258 340.455C632.588 340.853 632.884 341.217 633.146 341.545C633.413 341.862 633.574 342.053 633.63 342.117C634.549 343.282 635.153 344.494 635.441 345.754C635.741 347.02 635.596 348.362 635.008 349.781C634.439 351.153 633.612 352.253 632.526 353.081C631.429 353.904 630.215 354.41 628.885 354.601C627.556 354.792 626.24 354.617 624.938 354.077Z" fill="url(#paint2_linear_121_67)"/>
</g>
<defs>
<linearGradient id="paint0_linear_121_67" x1="183.243" y1="155.233" x2="205.272" y2="164.369" gradientUnits="userSpaceOnUse">
<stop stop-color="#DFE4FE"/>
<stop offset="1" stop-color="#B28DF9"/>
</linearGradient>
<linearGradient id="paint1_linear_121_67" x1="1326.24" y1="18.2327" x2="1348.27" y2="27.3691" gradientUnits="userSpaceOnUse">
<stop stop-color="#DFE4FE"/>
<stop offset="1" stop-color="#B28DF9"/>
</linearGradient>
<linearGradient id="paint2_linear_121_67" x1="626.243" y1="315.233" x2="648.272" y2="324.369" gradientUnits="userSpaceOnUse">
<stop stop-color="#DFE4FE"/>
<stop offset="1" stop-color="#B28DF9"/>
</linearGradient>
</defs>
</svg>
