<svg width="45" height="42" viewBox="0 0 45 42" fill="none" xmlns="http://www.w3.org/2000/svg">
<rect width="45" height="42" rx="2" fill="#03023B"/>
<path d="M12.872 38.56C10.312 38.56 8.36 37.84 7.016 36.4C5.672 34.928 5 32.832 5 30.112V12.448C5 9.728 5.672 7.648 7.016 6.208C8.36 4.736 10.312 4 12.872 4C15.432 4 17.384 4.736 18.728 6.208C20.072 7.648 20.744 9.728 20.744 12.448V15.328H15.752V12.112C15.752 9.904 14.84 8.8 13.016 8.8C11.192 8.8 10.28 9.904 10.28 12.112V30.496C10.28 32.672 11.192 33.76 13.016 33.76C14.84 33.76 15.752 32.672 15.752 30.496V23.92H13.112V19.12H20.744V30.112C20.744 32.832 20.072 34.928 18.728 36.4C17.384 37.84 15.432 38.56 12.872 38.56Z" fill="white"/>
<path d="M31.622 38.56C29.062 38.56 27.11 37.84 25.766 36.4C24.422 34.928 23.75 32.832 23.75 30.112V12.448C23.75 9.728 24.422 7.648 25.766 6.208C27.11 4.736 29.062 4 31.622 4C34.182 4 36.134 4.736 37.478 6.208C38.822 7.648 39.494 9.728 39.494 12.448V15.328H34.502V12.112C34.502 9.904 33.59 8.8 31.766 8.8C29.942 8.8 29.03 9.904 29.03 12.112V30.496C29.03 32.672 29.942 33.76 31.766 33.76C33.59 33.76 34.502 32.672 34.502 30.496V23.92H31.862V19.12H39.494V30.112C39.494 32.832 38.822 34.928 37.478 36.4C36.134 37.84 34.182 38.56 31.622 38.56Z" fill="white"/>
</svg>
