<svg width="71" height="43" fill="none" xmlns="http://www.w3.org/2000/svg"><path d="M8 42c-2 0-4 0-5-2-2-1-2-3-2-6V16c0-2 0-4 2-6l5-2 6 2c2 2 2 4 2 6v3h-5v-3c0-2-1-3-2-3-2 0-3 1-3 3v18c0 3 1 4 3 4 1 0 2-1 2-4v-6H9v-5h7v11c0 3 0 5-2 6-1 2-3 2-6 2ZM20 8h14v5h-9v9h7v5h-7v10h9v5H20V8Zm7-7h6l-5 5h-4l3-5Zm18 41c-3 0-5 0-6-2-2-1-2-3-2-6V16c0-2 0-4 2-6l6-2 5 2 3 6v3h-5v-3c0-2-1-3-3-3s-3 1-3 3v18c0 3 1 4 3 4s3-1 3-4v-6h-3v-5h8v11c0 3-1 5-3 6-1 2-3 2-5 2ZM56 8h14v5h-9v9h7v5h-7v10h9v5H56V8Zm8-7h5l-5 5h-4l4-5Z" fill="#fff"/></svg>