<svg width="254" height="300" viewBox="0 0 254 300" fill="none" xmlns="http://www.w3.org/2000/svg">
<rect x="155" y="89" width="85" height="111" rx="14" fill="#5790B5"/>
<rect x="13" y="89" width="85" height="111" rx="14" fill="#5790B5"/>
<g filter="url(#filter0_di_244_2)">
<mask id="path-3-inside-1_244_2" fill="white">
<path fill-rule="evenodd" clip-rule="evenodd" d="M217.765 0.0754663C218.17 0.0256515 218.582 0 219 0C224.523 0 229 4.47715 229 10V99H240C247.732 99 254 105.268 254 113V169C254 176.732 247.732 183 240 183H219V219C219 223.418 215.418 227 211 227H117C112.582 227 109 223.418 109 219C109 214.582 112.582 211 117 211H203V183H183C175.268 183 169 176.732 169 169V113C169 105.268 175.268 99 183 99H209V21L48 21V99H74C81.732 99 88 105.268 88 113V169C88 176.732 81.732 183 74 183H17C9.26801 183 3 176.732 3 169V113C3 105.268 9.26801 99 17 99H28V15C28 14.2363 28.0856 13.4926 28.2478 12.7779C28.0855 12.0445 28 11.2822 28 10.5C28 4.70102 32.701 9.33126e-06 38.5 9.07777e-06L216.5 0C216.928 0 217.351 0.0256392 217.765 0.0754663ZM37.0575 278.362C39.2982 280.603 42.9313 280.603 45.172 278.362L72.3627 251.172C74.6035 248.931 74.6035 245.298 72.3627 243.057C70.1219 240.816 66.4889 240.816 64.2481 243.057L37.0575 270.248C34.8167 272.489 34.8167 276.122 37.0575 278.362ZM103.476 292.191C103.476 295.36 100.907 297.929 97.7377 297.929C94.5688 297.929 91.9999 295.36 91.9999 292.191V253.738C91.9999 250.569 94.5688 248 97.7377 248C100.907 248 103.476 250.569 103.476 253.738L103.476 292.191ZM16 219.738C16 222.907 18.5689 225.476 21.7379 225.476H60.1913C63.3602 225.476 65.9291 222.907 65.9291 219.738C65.9291 216.569 63.3602 214 60.1913 214H21.7379C18.5689 214 16 216.569 16 219.738Z"/>
</mask>
<path fill-rule="evenodd" clip-rule="evenodd" d="M217.765 0.0754663C218.17 0.0256515 218.582 0 219 0C224.523 0 229 4.47715 229 10V99H240C247.732 99 254 105.268 254 113V169C254 176.732 247.732 183 240 183H219V219C219 223.418 215.418 227 211 227H117C112.582 227 109 223.418 109 219C109 214.582 112.582 211 117 211H203V183H183C175.268 183 169 176.732 169 169V113C169 105.268 175.268 99 183 99H209V21L48 21V99H74C81.732 99 88 105.268 88 113V169C88 176.732 81.732 183 74 183H17C9.26801 183 3 176.732 3 169V113C3 105.268 9.26801 99 17 99H28V15C28 14.2363 28.0856 13.4926 28.2478 12.7779C28.0855 12.0445 28 11.2822 28 10.5C28 4.70102 32.701 9.33126e-06 38.5 9.07777e-06L216.5 0C216.928 0 217.351 0.0256392 217.765 0.0754663ZM37.0575 278.362C39.2982 280.603 42.9313 280.603 45.172 278.362L72.3627 251.172C74.6035 248.931 74.6035 245.298 72.3627 243.057C70.1219 240.816 66.4889 240.816 64.2481 243.057L37.0575 270.248C34.8167 272.489 34.8167 276.122 37.0575 278.362ZM103.476 292.191C103.476 295.36 100.907 297.929 97.7377 297.929C94.5688 297.929 91.9999 295.36 91.9999 292.191V253.738C91.9999 250.569 94.5688 248 97.7377 248C100.907 248 103.476 250.569 103.476 253.738L103.476 292.191ZM16 219.738C16 222.907 18.5689 225.476 21.7379 225.476H60.1913C63.3602 225.476 65.9291 222.907 65.9291 219.738C65.9291 216.569 63.3602 214 60.1913 214H21.7379C18.5689 214 16 216.569 16 219.738Z" fill="#9665FD"/>
<path d="M217.765 0.0754663L217.646 1.06833L217.767 1.08283L217.888 1.06797L217.765 0.0754663ZM229 99H228V100H229V99ZM219 183V182H218V183H219ZM203 211V212H204V211H203ZM203 183H204V182H203V183ZM209 99V100H210V99H209ZM209 21H210V20H209V21ZM48 21V20H47V21H48ZM48 99H47V100H48V99ZM28 99V100H29V99H28ZM28.2478 12.7779L29.223 12.9992L29.2726 12.7807L29.2242 12.5619L28.2478 12.7779ZM38.5 9.07777e-06V1.00001V9.07777e-06ZM216.5 0V-1V0ZM45.172 278.362L44.4649 277.655L45.172 278.362ZM37.0575 278.362L37.7646 277.655L37.7646 277.655L37.0575 278.362ZM72.3627 251.172L71.6556 250.465L72.3627 251.172ZM72.3627 243.057L71.6556 243.764L72.3627 243.057ZM64.2481 243.057L63.541 242.35L64.2481 243.057ZM37.0575 270.248L37.7646 270.955L37.7646 270.955L37.0575 270.248ZM103.476 292.191H104.476H103.476ZM103.476 253.738H102.476H103.476ZM219 -1C218.541 -1 218.088 -0.971834 217.643 -0.917038L217.888 1.06797C218.252 1.02314 218.623 1 219 1V-1ZM230 10C230 3.92487 225.075 -1 219 -1V1C223.971 1 228 5.02944 228 10H230ZM230 99V10H228V99H230ZM240 98H229V100H240V98ZM255 113C255 104.716 248.284 98 240 98V100C247.18 100 253 105.82 253 113H255ZM255 169V113H253V169H255ZM240 184C248.284 184 255 177.284 255 169H253C253 176.18 247.18 182 240 182V184ZM219 184H240V182H219V184ZM220 219V183H218V219H220ZM211 228C215.971 228 220 223.971 220 219H218C218 222.866 214.866 226 211 226V228ZM117 228H211V226H117V228ZM108 219C108 223.971 112.029 228 117 228V226C113.134 226 110 222.866 110 219H108ZM117 210C112.029 210 108 214.029 108 219H110C110 215.134 113.134 212 117 212V210ZM203 210H117V212H203V210ZM202 183V211H204V183H202ZM183 184H203V182H183V184ZM168 169C168 177.284 174.716 184 183 184V182C175.82 182 170 176.18 170 169H168ZM168 113V169H170V113H168ZM183 98C174.716 98 168 104.716 168 113H170C170 105.82 175.82 100 183 100V98ZM209 98H183V100H209V98ZM208 21V99H210V21H208ZM209 20L48 20V22L209 22V20ZM47 21V99H49V21H47ZM48 100H74V98H48V100ZM74 100C81.1797 100 87 105.82 87 113H89C89 104.716 82.2843 98 74 98V100ZM87 113V169H89V113H87ZM87 169C87 176.18 81.1797 182 74 182V184C82.2843 184 89 177.284 89 169H87ZM74 182H17V184H74V182ZM17 182C9.8203 182 4 176.18 4 169H2C2 177.284 8.71573 184 17 184V182ZM4 169V113H2V169H4ZM4 113C4 105.82 9.8203 100 17 100V98C8.71573 98 2 104.716 2 113H4ZM17 100H28V98H17V100ZM29 99V15H27V99H29ZM29 15C29 14.3112 29.0772 13.6417 29.223 12.9992L27.2726 12.5566C27.094 13.3434 27 14.1613 27 15H29ZM29.2242 12.5619C29.0775 11.899 29 11.2091 29 10.5H27C27 11.3553 27.0936 12.19 27.2714 12.9939L29.2242 12.5619ZM29 10.5C29 5.2533 33.2533 1.00001 38.5 1.00001V-0.999991C32.1487 -0.999991 27 4.14873 27 10.5H29ZM38.5 1.00001L216.5 1V-1L38.5 -0.999991V1.00001ZM216.5 1C216.888 1 217.271 1.02325 217.646 1.06833L217.885 -0.917397C217.43 -0.971967 216.968 -1 216.5 -1V1ZM44.4649 277.655C42.6147 279.506 39.6148 279.506 37.7646 277.655L36.3504 279.07C38.9817 281.701 43.2478 281.701 45.8791 279.07L44.4649 277.655ZM71.6556 250.465L44.4649 277.655L45.8791 279.07L73.0698 251.879L71.6556 250.465ZM71.6556 243.764C73.5058 245.615 73.5058 248.614 71.6556 250.465L73.0698 251.879C75.7011 249.248 75.7011 244.981 73.0698 242.35L71.6556 243.764ZM64.9552 243.764C66.8055 241.914 69.8053 241.914 71.6556 243.764L73.0698 242.35C70.4385 239.719 66.1723 239.719 63.541 242.35L64.9552 243.764ZM37.7646 270.955L64.9552 243.764L63.541 242.35L36.3504 269.541L37.7646 270.955ZM37.7646 277.655C35.9143 275.805 35.9143 272.805 37.7646 270.955L36.3504 269.541C33.7191 272.172 33.7191 276.438 36.3504 279.07L37.7646 277.655ZM97.7377 298.929C101.459 298.929 104.476 295.912 104.476 292.191H102.476C102.476 294.808 100.354 296.929 97.7377 296.929V298.929ZM90.9999 292.191C90.9999 295.913 94.0165 298.929 97.7377 298.929V296.929C95.1211 296.929 92.9999 294.808 92.9999 292.191H90.9999ZM90.9999 253.738V292.191H92.9999V253.738H90.9999ZM97.7377 247C94.0165 247 90.9999 250.017 90.9999 253.738H92.9999C92.9999 251.121 95.1211 249 97.7377 249V247ZM104.476 253.738C104.476 250.017 101.459 247 97.7377 247V249C100.354 249 102.476 251.121 102.476 253.738H104.476ZM104.476 292.191L104.476 253.738H102.476L102.476 292.191H104.476ZM21.7379 224.476C19.1212 224.476 17 222.354 17 219.738H15C15 223.459 18.0166 226.476 21.7379 226.476V224.476ZM60.1913 224.476H21.7379V226.476H60.1913V224.476ZM64.9291 219.738C64.9291 222.354 62.8079 224.476 60.1913 224.476V226.476C63.9125 226.476 66.9291 223.459 66.9291 219.738H64.9291ZM60.1913 215C62.8079 215 64.9291 217.121 64.9291 219.738H66.9291C66.9291 216.017 63.9125 213 60.1913 213V215ZM21.7379 215H60.1913V213H21.7379V215ZM17 219.738C17 217.121 19.1212 215 21.7379 215V213C18.0166 213 15 216.017 15 219.738H17Z" fill="#E087FF" mask="url(#path-3-inside-1_244_2)"/>
</g>
<path fill-rule="evenodd" clip-rule="evenodd" d="M226.947 171C230.133 166.883 232 161.887 232 156.5C232 142.417 219.24 131 203.5 131C187.76 131 175 142.417 175 156.5C175 161.887 176.867 166.883 180.053 171H226.947Z" fill="black"/>
<path fill-rule="evenodd" clip-rule="evenodd" d="M77.9471 171C81.1333 166.883 83 161.887 83 156.5C83 142.417 70.2401 131 54.5 131C38.7599 131 26 142.417 26 156.5C26 161.887 27.8667 166.883 31.0529 171H77.9471Z" fill="black"/>
<ellipse cx="213.5" cy="153.5" rx="10.5" ry="9.5" fill="white"/>
<ellipse cx="64.5" cy="153.5" rx="10.5" ry="9.5" fill="white"/>
<defs>
<filter id="filter0_di_244_2" x="0" y="-1" width="255" height="300.929" filterUnits="userSpaceOnUse" color-interpolation-filters="sRGB">
<feFlood flood-opacity="0" result="BackgroundImageFix"/>
<feColorMatrix in="SourceAlpha" type="matrix" values="0 0 0 0 0 0 0 0 0 0 0 0 0 0 0 0 0 0 127 0" result="hardAlpha"/>
<feOffset dx="-3" dy="2"/>
<feComposite in2="hardAlpha" operator="out"/>
<feColorMatrix type="matrix" values="0 0 0 0 0.458824 0 0 0 0 0.968627 0 0 0 0 1 0 0 0 1 0"/>
<feBlend mode="normal" in2="BackgroundImageFix" result="effect1_dropShadow_244_2"/>
<feBlend mode="normal" in="SourceGraphic" in2="effect1_dropShadow_244_2" result="shape"/>
<feColorMatrix in="SourceAlpha" type="matrix" values="0 0 0 0 0 0 0 0 0 0 0 0 0 0 0 0 0 0 127 0" result="hardAlpha"/>
<feOffset dx="3" dy="-9"/>
<feGaussianBlur stdDeviation="0.5"/>
<feComposite in2="hardAlpha" operator="arithmetic" k2="-1" k3="1"/>
<feColorMatrix type="matrix" values="0 0 0 0 0 0 0 0 0 0 0 0 0 0 0 0 0 0 0.25 0"/>
<feBlend mode="normal" in2="shape" result="effect2_innerShadow_244_2"/>
</filter>
</defs>
</svg>
