<svg width="498" height="498" viewBox="0 0 498 498" fill="none" xmlns="http://www.w3.org/2000/svg">
<circle cx="249" cy="249" r="249" fill="url(#paint0_radial_258_5)" fill-opacity="0.5"/>
<rect x="275" y="189" width="85" height="111" rx="14" fill="#5790B5"/>
<rect x="133" y="189" width="85" height="111" rx="14" fill="#5790B5"/>
<g filter="url(#filter0_di_258_5)">
<mask id="path-4-inside-1_258_5" fill="white">
<path fill-rule="evenodd" clip-rule="evenodd" d="M337.765 100.075C338.17 100.026 338.582 100 339 100C344.523 100 349 104.477 349 110V199H360C367.732 199 374 205.268 374 213V269C374 276.732 367.732 283 360 283H339V319C339 323.418 335.418 327 331 327H237C232.582 327 229 323.418 229 319C229 314.582 232.582 311 237 311H323V283H303C295.268 283 289 276.732 289 269V213C289 205.268 295.268 199 303 199H329V121L168 121V199H194C201.732 199 208 205.268 208 213V269C208 276.732 201.732 283 194 283H137C129.268 283 123 276.732 123 269V213C123 205.268 129.268 199 137 199H148V115C148 114.236 148.086 113.493 148.248 112.778C148.086 112.044 148 111.282 148 110.5C148 104.701 152.701 100 158.5 100L336.5 100C336.928 100 337.351 100.026 337.765 100.075ZM157.057 378.362C159.298 380.603 162.931 380.603 165.172 378.362L192.363 351.172C194.603 348.931 194.603 345.298 192.363 343.057C190.122 340.816 186.489 340.816 184.248 343.057L157.057 370.248C154.817 372.489 154.817 376.122 157.057 378.362ZM223.476 392.191C223.476 395.36 220.907 397.929 217.738 397.929C214.569 397.929 212 395.36 212 392.191V353.738C212 350.569 214.569 348 217.738 348C220.907 348 223.476 350.569 223.476 353.738L223.476 392.191ZM136 319.738C136 322.907 138.569 325.476 141.738 325.476H180.191C183.36 325.476 185.929 322.907 185.929 319.738C185.929 316.569 183.36 314 180.191 314H141.738C138.569 314 136 316.569 136 319.738Z"/>
</mask>
<path fill-rule="evenodd" clip-rule="evenodd" d="M337.765 100.075C338.17 100.026 338.582 100 339 100C344.523 100 349 104.477 349 110V199H360C367.732 199 374 205.268 374 213V269C374 276.732 367.732 283 360 283H339V319C339 323.418 335.418 327 331 327H237C232.582 327 229 323.418 229 319C229 314.582 232.582 311 237 311H323V283H303C295.268 283 289 276.732 289 269V213C289 205.268 295.268 199 303 199H329V121L168 121V199H194C201.732 199 208 205.268 208 213V269C208 276.732 201.732 283 194 283H137C129.268 283 123 276.732 123 269V213C123 205.268 129.268 199 137 199H148V115C148 114.236 148.086 113.493 148.248 112.778C148.086 112.044 148 111.282 148 110.5C148 104.701 152.701 100 158.5 100L336.5 100C336.928 100 337.351 100.026 337.765 100.075ZM157.057 378.362C159.298 380.603 162.931 380.603 165.172 378.362L192.363 351.172C194.603 348.931 194.603 345.298 192.363 343.057C190.122 340.816 186.489 340.816 184.248 343.057L157.057 370.248C154.817 372.489 154.817 376.122 157.057 378.362ZM223.476 392.191C223.476 395.36 220.907 397.929 217.738 397.929C214.569 397.929 212 395.36 212 392.191V353.738C212 350.569 214.569 348 217.738 348C220.907 348 223.476 350.569 223.476 353.738L223.476 392.191ZM136 319.738C136 322.907 138.569 325.476 141.738 325.476H180.191C183.36 325.476 185.929 322.907 185.929 319.738C185.929 316.569 183.36 314 180.191 314H141.738C138.569 314 136 316.569 136 319.738Z" fill="#9665FD"/>
<path d="M337.765 100.075L337.646 101.068L337.767 101.083L337.888 101.068L337.765 100.075ZM349 199H348V200H349V199ZM339 283V282H338V283H339ZM323 311V312H324V311H323ZM323 283H324V282H323V283ZM329 199V200H330V199H329ZM329 121H330V120H329V121ZM168 121V120H167V121H168ZM168 199H167V200H168V199ZM148 199V200H149V199H148ZM148.248 112.778L149.223 112.999L149.273 112.781L149.224 112.562L148.248 112.778ZM158.5 100V101V100ZM336.5 100V99V100ZM165.172 378.362L164.465 377.655L165.172 378.362ZM157.057 378.362L157.765 377.655L157.765 377.655L157.057 378.362ZM192.363 351.172L191.656 350.465L192.363 351.172ZM192.363 343.057L191.656 343.764L192.363 343.057ZM184.248 343.057L183.541 342.35L184.248 343.057ZM157.057 370.248L157.765 370.955L157.765 370.955L157.057 370.248ZM223.476 392.191H224.476H223.476ZM223.476 353.738H222.476H223.476ZM339 99C338.541 99 338.088 99.0282 337.643 99.083L337.888 101.068C338.252 101.023 338.623 101 339 101V99ZM350 110C350 103.925 345.075 99 339 99V101C343.971 101 348 105.029 348 110H350ZM350 199V110H348V199H350ZM360 198H349V200H360V198ZM375 213C375 204.716 368.284 198 360 198V200C367.18 200 373 205.82 373 213H375ZM375 269V213H373V269H375ZM360 284C368.284 284 375 277.284 375 269H373C373 276.18 367.18 282 360 282V284ZM339 284H360V282H339V284ZM340 319V283H338V319H340ZM331 328C335.971 328 340 323.971 340 319H338C338 322.866 334.866 326 331 326V328ZM237 328H331V326H237V328ZM228 319C228 323.971 232.029 328 237 328V326C233.134 326 230 322.866 230 319H228ZM237 310C232.029 310 228 314.029 228 319H230C230 315.134 233.134 312 237 312V310ZM323 310H237V312H323V310ZM322 283V311H324V283H322ZM303 284H323V282H303V284ZM288 269C288 277.284 294.716 284 303 284V282C295.82 282 290 276.18 290 269H288ZM288 213V269H290V213H288ZM303 198C294.716 198 288 204.716 288 213H290C290 205.82 295.82 200 303 200V198ZM329 198H303V200H329V198ZM328 121V199H330V121H328ZM329 120L168 120V122L329 122V120ZM167 121V199H169V121H167ZM168 200H194V198H168V200ZM194 200C201.18 200 207 205.82 207 213H209C209 204.716 202.284 198 194 198V200ZM207 213V269H209V213H207ZM207 269C207 276.18 201.18 282 194 282V284C202.284 284 209 277.284 209 269H207ZM194 282H137V284H194V282ZM137 282C129.82 282 124 276.18 124 269H122C122 277.284 128.716 284 137 284V282ZM124 269V213H122V269H124ZM124 213C124 205.82 129.82 200 137 200V198C128.716 198 122 204.716 122 213H124ZM137 200H148V198H137V200ZM149 199V115H147V199H149ZM149 115C149 114.311 149.077 113.642 149.223 112.999L147.273 112.557C147.094 113.343 147 114.161 147 115H149ZM149.224 112.562C149.078 111.899 149 111.209 149 110.5H147C147 111.355 147.094 112.19 147.271 112.994L149.224 112.562ZM149 110.5C149 105.253 153.253 101 158.5 101V99C152.149 99 147 104.149 147 110.5H149ZM158.5 101L336.5 101V99L158.5 99V101ZM336.5 101C336.888 101 337.271 101.023 337.646 101.068L337.885 99.0826C337.43 99.028 336.968 99 336.5 99V101ZM164.465 377.655C162.615 379.506 159.615 379.506 157.765 377.655L156.35 379.07C158.982 381.701 163.248 381.701 165.879 379.07L164.465 377.655ZM191.656 350.465L164.465 377.655L165.879 379.07L193.07 351.879L191.656 350.465ZM191.656 343.764C193.506 345.615 193.506 348.614 191.656 350.465L193.07 351.879C195.701 349.248 195.701 344.981 193.07 342.35L191.656 343.764ZM184.955 343.764C186.805 341.914 189.805 341.914 191.656 343.764L193.07 342.35C190.438 339.719 186.172 339.719 183.541 342.35L184.955 343.764ZM157.765 370.955L184.955 343.764L183.541 342.35L156.35 369.541L157.765 370.955ZM157.765 377.655C155.914 375.805 155.914 372.805 157.765 370.955L156.35 369.541C153.719 372.172 153.719 376.438 156.35 379.07L157.765 377.655ZM217.738 398.929C221.459 398.929 224.476 395.912 224.476 392.191H222.476C222.476 394.808 220.354 396.929 217.738 396.929V398.929ZM211 392.191C211 395.913 214.017 398.929 217.738 398.929V396.929C215.121 396.929 213 394.808 213 392.191H211ZM211 353.738V392.191H213V353.738H211ZM217.738 347C214.017 347 211 350.017 211 353.738H213C213 351.121 215.121 349 217.738 349V347ZM224.476 353.738C224.476 350.017 221.459 347 217.738 347V349C220.354 349 222.476 351.121 222.476 353.738H224.476ZM224.476 392.191L224.476 353.738H222.476L222.476 392.191H224.476ZM141.738 324.476C139.121 324.476 137 322.354 137 319.738H135C135 323.459 138.017 326.476 141.738 326.476V324.476ZM180.191 324.476H141.738V326.476H180.191V324.476ZM184.929 319.738C184.929 322.354 182.808 324.476 180.191 324.476V326.476C183.912 326.476 186.929 323.459 186.929 319.738H184.929ZM180.191 315C182.808 315 184.929 317.121 184.929 319.738H186.929C186.929 316.017 183.912 313 180.191 313V315ZM141.738 315H180.191V313H141.738V315ZM137 319.738C137 317.121 139.121 315 141.738 315V313C138.017 313 135 316.017 135 319.738H137Z" fill="#E087FF" mask="url(#path-4-inside-1_258_5)"/>
</g>
<path fill-rule="evenodd" clip-rule="evenodd" d="M346.947 271C350.133 266.883 352 261.887 352 256.5C352 242.417 339.24 231 323.5 231C307.76 231 295 242.417 295 256.5C295 261.887 296.867 266.883 300.053 271H346.947Z" fill="black"/>
<path fill-rule="evenodd" clip-rule="evenodd" d="M197.947 271C201.133 266.883 203 261.887 203 256.5C203 242.417 190.24 231 174.5 231C158.76 231 146 242.417 146 256.5C146 261.887 147.867 266.883 151.053 271H197.947Z" fill="black"/>
<ellipse cx="333.5" cy="253.5" rx="10.5" ry="9.5" fill="white"/>
<ellipse cx="184.5" cy="253.5" rx="10.5" ry="9.5" fill="white"/>
<defs>
<filter id="filter0_di_258_5" x="120" y="99" width="255" height="300.929" filterUnits="userSpaceOnUse" color-interpolation-filters="sRGB">
<feFlood flood-opacity="0" result="BackgroundImageFix"/>
<feColorMatrix in="SourceAlpha" type="matrix" values="0 0 0 0 0 0 0 0 0 0 0 0 0 0 0 0 0 0 127 0" result="hardAlpha"/>
<feOffset dx="-3" dy="2"/>
<feComposite in2="hardAlpha" operator="out"/>
<feColorMatrix type="matrix" values="0 0 0 0 0.458824 0 0 0 0 0.968627 0 0 0 0 1 0 0 0 1 0"/>
<feBlend mode="normal" in2="BackgroundImageFix" result="effect1_dropShadow_258_5"/>
<feBlend mode="normal" in="SourceGraphic" in2="effect1_dropShadow_258_5" result="shape"/>
<feColorMatrix in="SourceAlpha" type="matrix" values="0 0 0 0 0 0 0 0 0 0 0 0 0 0 0 0 0 0 127 0" result="hardAlpha"/>
<feOffset dx="3" dy="-9"/>
<feGaussianBlur stdDeviation="0.5"/>
<feComposite in2="hardAlpha" operator="arithmetic" k2="-1" k3="1"/>
<feColorMatrix type="matrix" values="0 0 0 0 0 0 0 0 0 0 0 0 0 0 0 0 0 0 0.25 0"/>
<feBlend mode="normal" in2="shape" result="effect2_innerShadow_258_5"/>
</filter>
<radialGradient id="paint0_radial_258_5" cx="0" cy="0" r="1" gradientUnits="userSpaceOnUse" gradientTransform="translate(249 249) rotate(90) scale(291.512)">
<stop stop-color="#1541DC"/>
<stop offset="0.453125" stop-color="#264AC8" stop-opacity="0.57"/>
<stop offset="0.833333" stop-color="#2C53DC" stop-opacity="0.06"/>
</radialGradient>
</defs>
</svg>
