<svg width="1396" height="663" viewBox="0 0 1396 663" fill="none" xmlns="http://www.w3.org/2000/svg">
<path d="M108.5 394C108.5 416.865 89.751 435.5 66.5 435.5C43.249 435.5 24.5 416.865 24.5 394C24.5 371.135 43.249 352.5 66.5 352.5C89.751 352.5 108.5 371.135 108.5 394Z" stroke="#C5D2F4" stroke-width="11"/>
<mask id="path-2-inside-1_239_8" fill="white">
<path fill-rule="evenodd" clip-rule="evenodd" d="M1378.93 424.213C1380.47 424.824 1381.22 426.567 1380.61 428.108L1371.61 450.801L1393.68 459.554C1395.22 460.165 1395.98 461.908 1395.37 463.448L1391.95 472.054C1391.34 473.594 1389.6 474.347 1388.06 473.737L1365.99 464.983L1356.65 488.518C1356.04 490.059 1354.3 490.812 1352.76 490.201L1342.4 486.094C1340.86 485.483 1340.11 483.74 1340.72 482.199L1350.05 458.664L1327.65 449.778C1326.11 449.167 1325.35 447.423 1325.97 445.883L1329.38 437.278C1329.99 435.738 1331.73 434.984 1333.27 435.595L1355.68 444.482L1364.68 421.789C1365.29 420.248 1367.03 419.495 1368.57 420.106L1378.93 424.213Z"/>
</mask>
<path fill-rule="evenodd" clip-rule="evenodd" d="M1378.93 424.213C1380.47 424.824 1381.22 426.567 1380.61 428.108L1371.61 450.801L1393.68 459.554C1395.22 460.165 1395.98 461.908 1395.37 463.448L1391.95 472.054C1391.34 473.594 1389.6 474.347 1388.06 473.737L1365.99 464.983L1356.65 488.518C1356.04 490.059 1354.3 490.812 1352.76 490.201L1342.4 486.094C1340.86 485.483 1340.11 483.74 1340.72 482.199L1350.05 458.664L1327.65 449.778C1326.11 449.167 1325.35 447.423 1325.97 445.883L1329.38 437.278C1329.99 435.738 1331.73 434.984 1333.27 435.595L1355.68 444.482L1364.68 421.789C1365.29 420.248 1367.03 419.495 1368.57 420.106L1378.93 424.213Z" fill="#6526B3"/>
<path d="M1380.61 428.108L1391.77 432.532V432.532L1380.61 428.108ZM1378.93 424.213L1374.51 435.368L1378.93 424.213ZM1371.61 450.801L1360.46 446.377L1356.03 457.531L1367.19 461.955L1371.61 450.801ZM1393.68 459.554L1389.26 470.709H1389.26L1393.68 459.554ZM1395.37 463.448L1406.52 467.872V467.872L1395.37 463.448ZM1391.95 472.054L1380.8 467.63V467.63L1391.95 472.054ZM1388.06 473.737L1392.48 462.582V462.582L1388.06 473.737ZM1365.99 464.983L1370.41 453.829L1359.26 449.405L1354.83 460.559L1365.99 464.983ZM1356.65 488.518L1345.5 484.094H1345.5L1356.65 488.518ZM1352.76 490.201L1357.18 479.046H1357.18L1352.76 490.201ZM1342.4 486.094L1337.98 497.249H1337.98L1342.4 486.094ZM1340.72 482.199L1329.57 477.775H1329.57L1340.72 482.199ZM1350.05 458.664L1361.21 463.088L1365.63 451.934L1354.48 447.51L1350.05 458.664ZM1327.65 449.778L1332.07 438.623L1327.65 449.778ZM1325.97 445.883L1337.12 450.307L1337.12 450.307L1325.97 445.883ZM1329.38 437.278L1340.53 441.702L1329.38 437.278ZM1333.27 435.595L1337.7 424.44V424.44L1333.27 435.595ZM1355.68 444.482L1351.26 455.636L1362.41 460.06L1366.83 448.905L1355.68 444.482ZM1364.68 421.789L1375.83 426.213V426.213L1364.68 421.789ZM1368.57 420.106L1373 408.951L1373 408.951L1368.57 420.106ZM1391.77 432.532C1394.82 424.831 1391.05 416.112 1383.35 413.058L1374.51 435.368C1369.89 433.535 1367.63 428.304 1369.46 423.684L1391.77 432.532ZM1382.77 455.224L1391.77 432.532L1369.46 423.684L1360.46 446.377L1382.77 455.224ZM1398.11 448.399L1376.04 439.646L1367.19 461.955L1389.26 470.709L1398.11 448.399ZM1406.52 467.872C1409.58 460.172 1405.81 451.453 1398.11 448.399L1389.26 470.709C1384.64 468.876 1382.38 463.645 1384.21 459.025L1406.52 467.872ZM1403.11 476.478L1406.52 467.872L1384.21 459.025L1380.8 467.63L1403.11 476.478ZM1383.64 484.891C1391.34 487.945 1400.05 484.179 1403.11 476.478L1380.8 467.63C1382.63 463.01 1387.86 460.749 1392.48 462.582L1383.64 484.891ZM1361.56 476.138L1383.64 484.891L1392.48 462.582L1370.41 453.829L1361.56 476.138ZM1367.81 492.942L1377.14 469.407L1354.83 460.559L1345.5 484.094L1367.81 492.942ZM1348.34 501.356C1356.04 504.41 1364.75 500.643 1367.81 492.942L1345.5 484.094C1347.33 479.474 1352.56 477.214 1357.18 479.046L1348.34 501.356ZM1337.98 497.249L1348.34 501.356L1357.18 479.046L1346.83 474.939L1337.98 497.249ZM1329.57 477.775C1326.51 485.476 1330.28 494.195 1337.98 497.249L1346.83 474.939C1351.45 476.772 1353.71 482.003 1351.88 486.623L1329.57 477.775ZM1338.9 454.24L1329.57 477.775L1351.88 486.623L1361.21 463.088L1338.9 454.24ZM1323.22 460.933L1345.63 469.819L1354.48 447.51L1332.07 438.623L1323.22 460.933ZM1314.81 441.459C1311.76 449.16 1315.52 457.879 1323.22 460.933L1332.07 438.623C1336.69 440.456 1338.95 445.687 1337.12 450.307L1314.81 441.459ZM1318.22 432.854L1314.81 441.459L1337.12 450.307L1340.53 441.702L1318.22 432.854ZM1337.7 424.44C1330 421.386 1321.28 425.153 1318.22 432.854L1340.53 441.702C1338.7 446.322 1333.47 448.582 1328.85 446.75L1337.7 424.44ZM1360.1 433.327L1337.7 424.44L1328.85 446.75L1351.26 455.636L1360.1 433.327ZM1353.52 417.365L1344.53 440.058L1366.83 448.905L1375.83 426.213L1353.52 417.365ZM1373 408.951C1365.3 405.897 1356.58 409.664 1353.52 417.365L1375.83 426.213C1374 430.833 1368.77 433.093 1364.15 431.261L1373 408.951ZM1383.35 413.058L1373 408.951L1364.15 431.261L1374.51 435.368L1383.35 413.058Z" fill="#75F7FF" mask="url(#path-2-inside-1_239_8)"/>
<path fill-rule="evenodd" clip-rule="evenodd" d="M1116.66 441.326C1129.73 441.326 1140.33 430.731 1140.33 417.663C1140.33 404.594 1129.73 394 1116.66 394C1103.59 394 1093 404.594 1093 417.663C1093 430.731 1103.59 441.326 1116.66 441.326ZM1116.66 432.545C1124.88 432.545 1131.55 425.882 1131.55 417.663C1131.55 409.444 1124.88 402.781 1116.66 402.781C1108.44 402.781 1101.78 409.444 1101.78 417.663C1101.78 425.882 1108.44 432.545 1116.66 432.545Z" fill="#FF54DA"/>
<path fill-rule="evenodd" clip-rule="evenodd" d="M10.8899 109.78C41.2047 109.78 65.7797 85.2047 65.7797 54.8899C65.7797 24.575 41.2047 0 10.8899 0C-19.425 0 -44 24.575 -44 54.8899C-44 85.2047 -19.425 109.78 10.8899 109.78ZM11 93C31.9868 93 49 75.9868 49 55C49 34.0132 31.9868 17 11 17C-9.98682 17 -27 34.0132 -27 55C-27 75.9868 -9.98682 93 11 93Z" fill="#B3E1EF" fill-opacity="0.75"/>
<path d="M827.037 136.726L1054.96 268.315L1044.92 285.699L817 154.11L827.037 136.726Z" fill="#D2C233"/>
<g filter="url(#filter0_d_239_8)">
<path fill-rule="evenodd" clip-rule="evenodd" d="M1052.62 268.911L827.69 139.048L819.338 153.515L1044.27 283.377L1052.62 268.911ZM827.037 136.726L817 154.11L1044.92 285.699L1054.96 268.315L827.037 136.726Z" fill="#181717"/>
</g>
<path d="M832.731 141.731L837.238 144.333L828.317 159.785L823.81 157.183L832.731 141.731Z" fill="#4C597A"/>
<path d="M926.088 195.631L930.595 198.233L921.673 213.685L917.167 211.083L926.088 195.631Z" fill="#4C597A"/>
<path d="M844.321 148.422L848.828 151.024L839.906 166.476L835.4 163.874L844.321 148.422Z" fill="#4C597A"/>
<path d="M937.677 202.322L942.828 205.296L933.907 220.748L928.756 217.774L937.677 202.322Z" fill="#4C597A"/>
<path d="M855.91 155.113L860.417 157.715L851.496 173.168L846.989 170.566L855.91 155.113Z" fill="#4C597A"/>
<path d="M949.911 209.385L954.418 211.987L945.496 227.439L940.989 224.837L949.911 209.385Z" fill="#4C597A"/>
<path d="M867.499 161.804L872.005 164.406L863.084 179.858L858.577 177.256L867.499 161.804Z" fill="#4C597A"/>
<path d="M961.5 216.075L966.006 218.677L957.085 234.13L952.578 231.527L961.5 216.075Z" fill="#4C597A"/>
<path d="M879.088 168.495L883.595 171.097L874.673 186.549L870.167 183.947L879.088 168.495Z" fill="#4C597A"/>
<path d="M973.088 222.766L977.595 225.369L968.674 240.821L964.167 238.219L973.088 222.766Z" fill="#4C597A"/>
<path d="M1020.09 249.902L1024.6 252.504L1015.67 267.956L1011.17 265.354L1020.09 249.902Z" fill="#4C597A"/>
<path d="M891.321 175.558L895.828 178.16L886.906 193.612L882.4 191.01L891.321 175.558Z" fill="#4C597A"/>
<path d="M984.678 229.457L989.185 232.059L980.263 247.511L975.756 244.909L984.678 229.457Z" fill="#4C597A"/>
<path d="M1031.68 256.593L1036.19 259.195L1027.26 274.647L1022.76 272.045L1031.68 256.593Z" fill="#4C597A"/>
<path d="M902.91 182.249L907.417 184.851L898.496 200.303L893.989 197.701L902.91 182.249Z" fill="#4C597A"/>
<path d="M996.911 236.52L1001.42 239.122L992.496 254.574L987.989 251.972L996.911 236.52Z" fill="#4C597A"/>
<path d="M1043.27 263.284L1047.77 265.886L1038.85 281.338L1034.35 278.736L1043.27 263.284Z" fill="#4C597A"/>
<path d="M914.5 188.94L919.006 191.542L910.085 206.994L905.578 204.392L914.5 188.94Z" fill="#4C597A"/>
<path d="M1008.5 243.211L1013.01 245.813L1004.09 261.265L999.578 258.663L1008.5 243.211Z" fill="#4C597A"/>
<g filter="url(#filter1_i_239_8)">
<path fill-rule="evenodd" clip-rule="evenodd" d="M1086.55 213.589L858.633 82L852.448 92.7122C855.794 94.8538 856.999 99.0835 855.124 102.33C853.25 105.577 848.984 106.649 845.457 104.822L820.717 147.672L827.037 136.726L1054.96 268.315L1073.38 236.408C1070.08 234.253 1068.9 230.057 1070.76 226.83C1072.63 223.604 1076.85 222.525 1080.37 224.305L1086.55 213.589Z" fill="#4BDDA0"/>
</g>
<path d="M864.489 103.856L883.542 114.856L863.542 149.497L844.489 138.497L864.489 103.856Z" fill="#4C597A"/>
<path d="M955.422 156.356L974.474 167.356L954.474 201.997L935.422 190.997L955.422 156.356Z" fill="#4C597A"/>
<path d="M894.8 121.356L913.853 132.356L893.853 166.997L874.8 155.997L894.8 121.356Z" fill="#4C597A"/>
<path d="M985.733 173.856L1004.79 184.856L984.785 219.497L965.733 208.497L985.733 173.856Z" fill="#4C597A"/>
<path d="M925.111 138.856L944.163 149.856L924.163 184.497L905.111 173.497L925.111 138.856Z" fill="#4C597A"/>
<path d="M1016.04 191.356L1035.1 202.356L1015.1 236.997L996.043 225.997L1016.04 191.356Z" fill="#4C597A"/>
<path d="M1046.35 208.856L1065.41 219.856L1045.41 254.497L1026.35 243.497L1046.35 208.856Z" fill="#4C597A"/>
<path d="M1114 573.97L1230 507L1281.32 595.899L1165.33 662.87L1114 573.97Z" fill="#3A3E47"/>
<path d="M1143.14 557.145L1155.71 549.888L1164.13 564.458L1151.55 571.716L1143.14 557.145Z" fill="#B8BDC9"/>
<path d="M1164.57 544.774L1177.14 537.516L1185.55 552.087L1172.98 559.345L1164.57 544.774Z" fill="#B8BDC9"/>
<path d="M1181.71 534.877L1194.28 527.619L1202.7 542.19L1190.12 549.448L1181.71 534.877Z" fill="#B8BDC9"/>
<path d="M1143.98 588.282L1150.74 599.996L1136.17 608.408L1129.41 596.694L1143.98 588.282Z" fill="#B8BDC9"/>
<path d="M1241.4 532.033L1248.16 543.747L1233.59 552.16L1226.83 540.446L1241.4 532.033Z" fill="#B8BDC9"/>
<path d="M1156.18 609.424L1162.95 621.138L1148.37 629.55L1141.61 617.836L1156.18 609.424Z" fill="#B8BDC9"/>
<path d="M1251.79 550.033L1258.56 561.746L1243.99 570.159L1237.22 558.445L1251.79 550.033Z" fill="#B8BDC9"/>
<path d="M1263.67 570.603L1270.43 582.317L1255.86 590.73L1249.1 579.016L1263.67 570.603Z" fill="#B8BDC9"/>
<path d="M1160.97 580.759L1212.39 551.067L1235.49 591.066L1184.06 620.757L1160.97 580.759Z" fill="#FF54DA"/>
<path d="M1163.34 580.912L1211.34 553.2L1233.11 590.913L1185.11 618.625L1163.34 580.912Z" fill="#AEA19A"/>
<path d="M1149.29 582.621C1147.77 579.991 1148.67 576.627 1151.3 575.108L1212.33 539.87C1214.96 538.351 1218.33 539.253 1219.85 541.883L1252.11 597.775C1253.63 600.405 1252.73 603.769 1250.1 605.288L1189.07 640.526C1186.44 642.044 1183.07 641.143 1181.55 638.513L1149.29 582.621Z" stroke="white"/>
<path d="M1177.96 583.138L1205.96 566.973L1218.49 588.686L1190.49 604.852L1177.96 583.138Z" fill="#2E4D4E"/>
<path d="M1184.22 584.092L1203.65 572.876L1212.23 587.732L1192.8 598.949L1184.22 584.092Z" fill="#2F272C"/>
<path fill-rule="evenodd" clip-rule="evenodd" d="M1155.39 583.975C1158 582.472 1158.89 579.143 1157.39 576.539C1155.88 573.936 1152.55 573.044 1149.95 574.547C1147.35 576.05 1146.46 579.379 1147.96 581.983C1149.46 584.586 1152.79 585.478 1155.39 583.975ZM1154.38 582.226C1156.02 581.281 1156.58 579.187 1155.64 577.549C1154.69 575.912 1152.6 575.351 1150.96 576.296C1149.32 577.242 1148.76 579.335 1149.71 580.973C1150.65 582.61 1152.75 583.171 1154.38 582.226Z" fill="#EAEAEA"/>
<path fill-rule="evenodd" clip-rule="evenodd" d="M1185.68 566.49C1188.28 564.987 1189.17 561.658 1187.67 559.054C1186.17 556.451 1182.84 555.559 1180.24 557.062C1177.63 558.565 1176.74 561.894 1178.24 564.498C1179.75 567.101 1183.08 567.993 1185.68 566.49ZM1184.67 564.741C1186.31 563.796 1186.87 561.702 1185.92 560.064C1184.98 558.427 1182.88 557.866 1181.25 558.811C1179.61 559.757 1179.05 561.851 1179.99 563.488C1180.94 565.125 1183.03 565.687 1184.67 564.741Z" fill="#EAEAEA"/>
<path fill-rule="evenodd" clip-rule="evenodd" d="M1217.11 548.346C1219.71 546.842 1220.6 543.513 1219.1 540.91C1217.6 538.306 1214.27 537.414 1211.66 538.917C1209.06 540.42 1208.17 543.75 1209.67 546.353C1211.17 548.957 1214.5 549.849 1217.11 548.346ZM1216.1 546.596C1217.73 545.651 1218.3 543.557 1217.35 541.92C1216.4 540.282 1214.31 539.721 1212.67 540.667C1211.04 541.612 1210.47 543.706 1211.42 545.343C1212.37 546.981 1214.46 547.542 1216.1 546.596Z" fill="#EAEAEA"/>
<path fill-rule="evenodd" clip-rule="evenodd" d="M1231.62 573.488C1234.23 571.984 1235.12 568.655 1233.61 566.052C1232.11 563.448 1228.78 562.556 1226.18 564.059C1223.58 565.563 1222.68 568.892 1224.19 571.495C1225.69 574.099 1229.02 574.991 1231.62 573.488ZM1230.61 571.738C1232.25 570.793 1232.81 568.699 1231.87 567.062C1230.92 565.424 1228.83 564.863 1227.19 565.809C1225.55 566.754 1224.99 568.848 1225.94 570.485C1226.88 572.123 1228.98 572.684 1230.61 571.738Z" fill="#EAEAEA"/>
<path fill-rule="evenodd" clip-rule="evenodd" d="M1250.59 606.344C1253.2 604.841 1254.09 601.511 1252.58 598.908C1251.08 596.304 1247.75 595.412 1245.15 596.915C1242.54 598.419 1241.65 601.748 1243.16 604.351C1244.66 606.955 1247.99 607.847 1250.59 606.344ZM1249.58 604.594C1251.22 603.649 1251.78 601.555 1250.84 599.918C1249.89 598.28 1247.8 597.719 1246.16 598.665C1244.52 599.61 1243.96 601.704 1244.91 603.341C1245.85 604.979 1247.94 605.54 1249.58 604.594Z" fill="#EAEAEA"/>
<path fill-rule="evenodd" clip-rule="evenodd" d="M1220.59 623.664C1223.2 622.161 1224.09 618.831 1222.59 616.228C1221.08 613.624 1217.75 612.732 1215.15 614.235C1212.55 615.739 1211.65 619.068 1213.16 621.671C1214.66 624.275 1217.99 625.167 1220.59 623.664ZM1219.58 621.914C1221.22 620.969 1221.78 618.875 1220.84 617.238C1219.89 615.6 1217.8 615.039 1216.16 615.985C1214.52 616.93 1213.96 619.024 1214.91 620.661C1215.85 622.299 1217.95 622.86 1219.58 621.914Z" fill="#EAEAEA"/>
<path fill-rule="evenodd" clip-rule="evenodd" d="M1188.88 641.973C1191.48 640.47 1192.38 637.141 1190.87 634.538C1189.37 631.934 1186.04 631.042 1183.44 632.545C1180.83 634.048 1179.94 637.377 1181.44 639.981C1182.95 642.584 1186.28 643.477 1188.88 641.973ZM1187.87 640.224C1189.51 639.279 1190.07 637.185 1189.12 635.547C1188.18 633.91 1186.08 633.349 1184.45 634.294C1182.81 635.24 1182.25 637.334 1183.19 638.971C1184.14 640.608 1186.23 641.169 1187.87 640.224Z" fill="#EAEAEA"/>
<path fill-rule="evenodd" clip-rule="evenodd" d="M1169.91 609.117C1172.51 607.614 1173.41 604.285 1171.9 601.681C1170.4 599.078 1167.07 598.186 1164.47 599.689C1161.86 601.192 1160.97 604.521 1162.47 607.125C1163.98 609.728 1167.31 610.62 1169.91 609.117ZM1168.9 607.368C1170.54 606.423 1171.1 604.329 1170.15 602.691C1169.21 601.054 1167.11 600.493 1165.48 601.438C1163.84 602.384 1163.28 604.477 1164.22 606.115C1165.17 607.752 1167.26 608.313 1168.9 607.368Z" fill="#EAEAEA"/>
<defs>
<filter id="filter0_d_239_8" x="812" y="136.726" width="242.956" height="153.973" filterUnits="userSpaceOnUse" color-interpolation-filters="sRGB">
<feFlood flood-opacity="0" result="BackgroundImageFix"/>
<feColorMatrix in="SourceAlpha" type="matrix" values="0 0 0 0 0 0 0 0 0 0 0 0 0 0 0 0 0 0 127 0" result="hardAlpha"/>
<feOffset dx="-3" dy="3"/>
<feGaussianBlur stdDeviation="1"/>
<feComposite in2="hardAlpha" operator="out"/>
<feColorMatrix type="matrix" values="0 0 0 0 1 0 0 0 0 1 0 0 0 0 1 0 0 0 1 0"/>
<feBlend mode="normal" in2="BackgroundImageFix" result="effect1_dropShadow_239_8"/>
<feBlend mode="normal" in="SourceGraphic" in2="effect1_dropShadow_239_8" result="shape"/>
</filter>
<filter id="filter1_i_239_8" x="820.717" y="82" width="269.834" height="190.315" filterUnits="userSpaceOnUse" color-interpolation-filters="sRGB">
<feFlood flood-opacity="0" result="BackgroundImageFix"/>
<feBlend mode="normal" in="SourceGraphic" in2="BackgroundImageFix" result="shape"/>
<feColorMatrix in="SourceAlpha" type="matrix" values="0 0 0 0 0 0 0 0 0 0 0 0 0 0 0 0 0 0 127 0" result="hardAlpha"/>
<feOffset dx="6" dy="4"/>
<feGaussianBlur stdDeviation="2"/>
<feComposite in2="hardAlpha" operator="arithmetic" k2="-1" k3="1"/>
<feColorMatrix type="matrix" values="0 0 0 0 0 0 0 0 0 0 0 0 0 0 0 0 0 0 0.25 0"/>
<feBlend mode="normal" in2="shape" result="effect1_innerShadow_239_8"/>
</filter>
</defs>
</svg>
