<svg width="621" height="621" viewBox="0 0 621 621" fill="none" xmlns="http://www.w3.org/2000/svg">
<circle cx="310.5" cy="310.5" r="310.5" fill="url(#paint0_radial_258_4)" fill-opacity="0.5"/>
<g filter="url(#filter0_i_258_4)">
<path d="M196.949 265L215.872 328.61L129 268.001L196.949 265Z" fill="#417799"/>
<path d="M215.872 328.61L211.494 411.737L129 268.001L215.872 328.61Z" fill="#6BA3C3"/>
<path d="M211.494 411.737L207.116 494.864L156.954 432.7L129 268.001L211.494 411.737Z" fill="#427799"/>
<path d="M245.976 346.681L279.09 558.474L232.644 574.015L207.116 494.864L215.872 328.61L245.976 346.681Z" fill="#76A8BF"/>
<path d="M329.837 426.917V533.175L324.676 621L279.09 558.474L307.67 484.383L329.837 426.917Z" fill="#75F7FF"/>
<path d="M441.652 476.793L436.061 488.72L412.408 536.066L385.314 495.948L417.999 410.291L441.652 476.793Z" fill="#3E7999"/>
<path d="M436.061 328.61L425.74 375.956L417.999 410.291L385.314 350.657L448.103 265L436.061 328.61Z" fill="#D9D9D9"/>
<path d="M385.314 350.657V447.879V495.948L329.837 426.917L338.438 312.708L385.314 350.657Z" fill="#417799"/>
<path d="M338.438 312.708L329.837 426.917L304.464 492.695L279.09 558.474L245.976 346.681L275.22 337.284L338.438 312.708Z" fill="#3C5E82"/>
<path d="M501 265L491.539 375.956L417.999 410.291L448.103 265H477.347H501Z" fill="#407997"/>
<path d="M381.874 265L338.438 312.708L276.08 337.284L245.976 346.681L279.95 265L305.324 265H381.874Z" fill="#427799"/>
<path d="M279.8 265.361L245.976 346.681L230.924 337.646L215.872 328.61L197.057 265.361L260.168 265.361H279.8Z" fill="#74C9CE"/>
<path d="M448.103 265L413.132 312.708L385.314 350.657L338.438 312.708L381.874 265L444.985 265L448.103 265Z" fill="#314B70"/>
<path d="M385.314 495.948L362.091 547.27L324.676 621L329.837 533.175V426.917L385.314 495.948Z" fill="#6BA3C3"/>
<path d="M491.539 410.291L486.378 451.493L441.652 476.793L417.999 410.291L491.539 375.956V410.291Z" fill="#76A8BE"/>
<path d="M436.061 328.61L425.74 375.956L417.999 410.291L385.314 350.657L448.103 265L436.061 328.61Z" fill="#73A9C1"/>
<path d="M417.999 410.291L405.449 443.181L385.314 495.948V420.05V350.657L417.999 410.291Z" fill="#D9D9D9"/>
<path d="M417.999 410.291L405.449 443.181L385.314 495.948V420.05V350.657L417.999 410.291Z" fill="#293E68"/>
<path d="M412.408 536.066H403.377H385.314H367.161L385.314 495.948L412.408 536.066Z" fill="#7AA9BD"/>
</g>
<g filter="url(#filter1_i_258_4)">
<path d="M398.143 211L384.816 173.298L446 209.222L398.143 211Z" fill="#417799"/>
<path d="M384.816 173.298L387.899 124.029L446 209.222L384.816 173.298Z" fill="#334970"/>
<path d="M387.899 124.029L390.983 74.7604L411.734 119.103L446 209.222L387.899 124.029Z" fill="#8FD8F7"/>
<path d="M363.614 162.588L340.291 37.0589L368.674 58.6447L390.983 74.7604L384.816 173.298L363.614 162.588Z" fill="#76A8BF"/>
<path d="M304.55 115.032V52.0538L308.185 0L340.291 37.0589L320.162 80.9726L304.55 115.032Z" fill="#75F7FF"/>
<path d="M225.799 85.471L229.736 78.402L246.395 50.3401L265.477 74.1178L242.458 124.886L225.799 85.471Z" fill="#3E7999"/>
<path d="M229.736 173.298L237.006 145.237L242.458 124.886L265.477 160.231L221.256 211L229.736 173.298Z" fill="#D9D9D9"/>
<path d="M265.477 160.231V102.608V74.1178L304.55 115.032L308.185 145.237L265.477 160.231Z" fill="#417799"/>
<path d="M308.185 145.237L304.55 115.032L322.421 76.0457L340.291 37.0589L363.614 162.588L343.017 168.157L308.185 145.237Z" fill="#F7FAFF"/>
<path d="M184 211L190.664 145.237L242.458 124.886L221.256 211H200.659H184Z" fill="#407997"/>
<path d="M267.901 211L308.185 145.237L342.412 168.157L363.614 162.588L339.686 211L321.815 211H267.901Z" fill="#3C809D"/>
<path d="M339.791 210.786L363.614 162.588L374.215 167.943L384.816 173.298L398.068 210.786L353.618 210.786H339.791Z" fill="#74C9CE"/>
<path d="M221.256 211L245.885 182.724L265.477 160.231L308.185 145.237L267.901 211L223.451 211L221.256 211Z" fill="#417799"/>
<path d="M265.477 74.1178L281.834 43.6995L308.185 0L304.55 52.0538V115.032L265.477 74.1178Z" fill="white"/>
<path d="M190.664 124.886L194.298 100.466L225.799 85.471L242.458 124.886L190.664 145.237V124.886Z" fill="#C4E0EC"/>
<path d="M229.736 173.298L237.006 145.237L242.458 124.886L265.477 160.231L221.256 211L229.736 173.298Z" fill="#73A9C1"/>
<path d="M242.458 124.886L251.297 105.393L265.477 74.1178V119.103V160.231L242.458 124.886Z" fill="#D9D9D9"/>
<path d="M242.458 124.886L251.297 105.393L265.477 74.1178V119.103V160.231L242.458 124.886Z" fill="#33466E"/>
<path d="M246.395 50.3401H252.756H265.477H278.263L265.477 74.1178L246.395 50.3401Z" fill="white"/>
</g>
<path fill-rule="evenodd" clip-rule="evenodd" d="M223.053 146C219.867 141.883 218 136.887 218 131.5C218 117.417 230.76 106 246.5 106C262.24 106 275 117.417 275 131.5C275 136.887 273.133 141.883 269.947 146H223.053Z" fill="black"/>
<path fill-rule="evenodd" clip-rule="evenodd" d="M349.053 146C345.867 141.883 344 136.887 344 131.5C344 117.417 356.76 106 372.5 106C388.24 106 401 117.417 401 131.5C401 136.887 399.133 141.883 395.947 146H349.053Z" fill="black"/>
<ellipse cx="10.5" cy="9.5" rx="10.5" ry="9.5" transform="matrix(-1 0 0 1 247 119)" fill="white"/>
<ellipse cx="10.5" cy="9.5" rx="10.5" ry="9.5" transform="matrix(-1 0 0 1 373 119)" fill="white"/>
<line y1="-2.5" x2="394" y2="-2.5" transform="matrix(-1 0 0 1 513 238)" stroke="white" stroke-width="5"/>
<path fill-rule="evenodd" clip-rule="evenodd" d="M223.263 333.66C219.944 329.372 218 324.168 218 318.558C218 303.89 231.289 292 247.683 292C264.076 292 277.365 303.89 277.365 318.558C277.365 324.168 275.421 329.372 272.103 333.66H223.263Z" fill="black"/>
<path fill-rule="evenodd" clip-rule="evenodd" d="M354.491 333.66C351.172 329.372 349.228 324.168 349.228 318.558C349.228 303.891 362.517 292 378.911 292C395.304 292 408.593 303.891 408.593 318.558C408.593 324.168 406.649 329.372 403.331 333.66H354.491Z" fill="black"/>
<ellipse cx="10.9357" cy="9.89419" rx="10.9357" ry="9.89419" transform="matrix(-1 0 0 1 248.203 305.539)" fill="white"/>
<ellipse cx="10.9357" cy="9.89419" rx="10.9357" ry="9.89419" transform="matrix(-1 0 0 1 379.432 305.539)" fill="white"/>
<defs>
<filter id="filter0_i_258_4" x="129" y="265" width="372" height="360" filterUnits="userSpaceOnUse" color-interpolation-filters="sRGB">
<feFlood flood-opacity="0" result="BackgroundImageFix"/>
<feBlend mode="normal" in="SourceGraphic" in2="BackgroundImageFix" result="shape"/>
<feColorMatrix in="SourceAlpha" type="matrix" values="0 0 0 0 0 0 0 0 0 0 0 0 0 0 0 0 0 0 127 0" result="hardAlpha"/>
<feOffset dy="4"/>
<feGaussianBlur stdDeviation="36"/>
<feComposite in2="hardAlpha" operator="arithmetic" k2="-1" k3="1"/>
<feColorMatrix type="matrix" values="0 0 0 0 0.0714375 0 0 0 0 0.0960437 0 0 0 0 0.3175 0 0 0 1 0"/>
<feBlend mode="normal" in2="shape" result="effect1_innerShadow_258_4"/>
</filter>
<filter id="filter1_i_258_4" x="184" y="0" width="262" height="215" filterUnits="userSpaceOnUse" color-interpolation-filters="sRGB">
<feFlood flood-opacity="0" result="BackgroundImageFix"/>
<feBlend mode="normal" in="SourceGraphic" in2="BackgroundImageFix" result="shape"/>
<feColorMatrix in="SourceAlpha" type="matrix" values="0 0 0 0 0 0 0 0 0 0 0 0 0 0 0 0 0 0 127 0" result="hardAlpha"/>
<feOffset dy="4"/>
<feGaussianBlur stdDeviation="22.5"/>
<feComposite in2="hardAlpha" operator="arithmetic" k2="-1" k3="1"/>
<feColorMatrix type="matrix" values="0 0 0 0 0.475 0 0 0 0 0.937 0 0 0 0 1 0 0 0 1 0"/>
<feBlend mode="normal" in2="shape" result="effect1_innerShadow_258_4"/>
</filter>
<radialGradient id="paint0_radial_258_4" cx="0" cy="0" r="1" gradientUnits="userSpaceOnUse" gradientTransform="translate(310.5 310.5) rotate(90) scale(363.512)">
<stop stop-color="#1541DC"/>
<stop offset="0.453125" stop-color="#264AC8" stop-opacity="0.57"/>
<stop offset="0.833333" stop-color="#2C53DC" stop-opacity="0.06"/>
</radialGradient>
</defs>
</svg>
