<svg width="394" height="621" viewBox="0 0 394 621" fill="none" xmlns="http://www.w3.org/2000/svg">
<g filter="url(#filter0_i_250_3)">
<path d="M77.9491 265L96.8717 328.61L10 268.001L77.9491 265Z" fill="#417799"/>
<path d="M96.8717 328.61L92.494 411.737L10 268.001L96.8717 328.61Z" fill="#6BA3C3"/>
<path d="M92.494 411.737L88.1163 494.864L37.9538 432.7L10 268.001L92.494 411.737Z" fill="#427799"/>
<path d="M126.976 346.681L160.09 558.474L113.644 574.015L88.1163 494.864L96.8717 328.61L126.976 346.681Z" fill="#76A8BF"/>
<path d="M210.837 426.917V533.175L205.676 621L160.09 558.474L188.67 484.383L210.837 426.917Z" fill="#75F7FF"/>
<path d="M322.652 476.793L317.061 488.72L293.408 536.066L266.314 495.948L298.999 410.291L322.652 476.793Z" fill="#3E7999"/>
<path d="M317.061 328.61L306.74 375.956L298.999 410.291L266.314 350.657L329.103 265L317.061 328.61Z" fill="#D9D9D9"/>
<path d="M266.314 350.657V447.879V495.948L210.837 426.917L219.438 312.708L266.314 350.657Z" fill="#417799"/>
<path d="M219.438 312.708L210.837 426.917L185.464 492.695L160.09 558.474L126.976 346.681L156.22 337.284L219.438 312.708Z" fill="#3C5E82"/>
<path d="M382 265L372.539 375.956L298.999 410.291L329.103 265H358.347H382Z" fill="#407997"/>
<path d="M262.874 265L219.438 312.708L157.08 337.284L126.976 346.681L160.95 265L186.324 265H262.874Z" fill="#427799"/>
<path d="M160.8 265.361L126.976 346.681L111.924 337.646L96.8717 328.61L78.0566 265.361L141.168 265.361H160.8Z" fill="#74C9CE"/>
<path d="M329.103 265L294.132 312.708L266.314 350.657L219.438 312.708L262.874 265L325.985 265L329.103 265Z" fill="#314B70"/>
<path d="M266.314 495.948L243.091 547.27L205.676 621L210.837 533.175V426.917L266.314 495.948Z" fill="#6BA3C3"/>
<path d="M372.539 410.291L367.378 451.493L322.652 476.793L298.999 410.291L372.539 375.956V410.291Z" fill="#76A8BE"/>
<path d="M317.061 328.61L306.74 375.956L298.999 410.291L266.314 350.657L329.103 265L317.061 328.61Z" fill="#73A9C1"/>
<path d="M298.999 410.291L286.449 443.181L266.314 495.948V420.05V350.657L298.999 410.291Z" fill="#D9D9D9"/>
<path d="M298.999 410.291L286.449 443.181L266.314 495.948V420.05V350.657L298.999 410.291Z" fill="#293E68"/>
<path d="M293.408 536.066H284.377H266.314H248.161L266.314 495.948L293.408 536.066Z" fill="#7AA9BD"/>
</g>
<g filter="url(#filter1_i_250_3)">
<path d="M279.143 211L265.816 173.298L327 209.222L279.143 211Z" fill="#417799"/>
<path d="M265.816 173.298L268.899 124.029L327 209.222L265.816 173.298Z" fill="#334970"/>
<path d="M268.899 124.029L271.983 74.7604L292.734 119.103L327 209.222L268.899 124.029Z" fill="#8FD8F7"/>
<path d="M244.614 162.588L221.291 37.0589L249.674 58.6447L271.983 74.7604L265.816 173.298L244.614 162.588Z" fill="#76A8BF"/>
<path d="M185.55 115.032V52.0538L189.185 0L221.291 37.0589L201.162 80.9726L185.55 115.032Z" fill="#75F7FF"/>
<path d="M106.799 85.471L110.736 78.402L127.395 50.3401L146.477 74.1178L123.458 124.886L106.799 85.471Z" fill="#3E7999"/>
<path d="M110.736 173.298L118.006 145.237L123.458 124.886L146.477 160.231L102.256 211L110.736 173.298Z" fill="#D9D9D9"/>
<path d="M146.477 160.231V102.608V74.1178L185.55 115.032L189.185 145.237L146.477 160.231Z" fill="#417799"/>
<path d="M189.185 145.237L185.55 115.032L203.421 76.0457L221.291 37.0589L244.614 162.588L224.017 168.157L189.185 145.237Z" fill="#F7FAFF"/>
<path d="M65 211L71.6636 145.237L123.458 124.886L102.256 211H81.659H65Z" fill="#407997"/>
<path d="M148.901 211L189.185 145.237L223.412 168.157L244.614 162.588L220.686 211L202.815 211H148.901Z" fill="#3C809D"/>
<path d="M220.791 210.786L244.614 162.588L255.215 167.943L265.816 173.298L279.068 210.786L234.618 210.786H220.791Z" fill="#74C9CE"/>
<path d="M102.256 211L126.885 182.724L146.477 160.231L189.185 145.237L148.901 211L104.451 211L102.256 211Z" fill="#417799"/>
<path d="M146.477 74.1178L162.834 43.6995L189.185 0L185.55 52.0538V115.032L146.477 74.1178Z" fill="white"/>
<path d="M71.6636 124.886L75.2983 100.466L106.799 85.471L123.458 124.886L71.6636 145.237V124.886Z" fill="#C4E0EC"/>
<path d="M110.736 173.298L118.006 145.237L123.458 124.886L146.477 160.231L102.256 211L110.736 173.298Z" fill="#73A9C1"/>
<path d="M123.458 124.886L132.297 105.393L146.477 74.1178V119.103V160.231L123.458 124.886Z" fill="#D9D9D9"/>
<path d="M123.458 124.886L132.297 105.393L146.477 74.1178V119.103V160.231L123.458 124.886Z" fill="#33466E"/>
<path d="M127.395 50.3401H133.756H146.477H159.263L146.477 74.1178L127.395 50.3401Z" fill="white"/>
</g>
<path fill-rule="evenodd" clip-rule="evenodd" d="M104.053 146C100.867 141.883 99 136.887 99 131.5C99 117.417 111.76 106 127.5 106C143.24 106 156 117.417 156 131.5C156 136.887 154.133 141.883 150.947 146H104.053Z" fill="black"/>
<path fill-rule="evenodd" clip-rule="evenodd" d="M230.053 146C226.867 141.883 225 136.887 225 131.5C225 117.417 237.76 106 253.5 106C269.24 106 282 117.417 282 131.5C282 136.887 280.133 141.883 276.947 146H230.053Z" fill="black"/>
<ellipse cx="10.5" cy="9.5" rx="10.5" ry="9.5" transform="matrix(-1 0 0 1 128 119)" fill="white"/>
<ellipse cx="10.5" cy="9.5" rx="10.5" ry="9.5" transform="matrix(-1 0 0 1 254 119)" fill="white"/>
<line y1="-2.5" x2="394" y2="-2.5" transform="matrix(-1 0 0 1 394 238)" stroke="white" stroke-width="5"/>
<path fill-rule="evenodd" clip-rule="evenodd" d="M104.263 333.66C100.944 329.372 99.0001 324.168 99.0001 318.558C99.0001 303.89 112.289 292 128.683 292C145.076 292 158.365 303.89 158.365 318.558C158.365 324.168 156.421 329.372 153.103 333.66H104.263Z" fill="black"/>
<path fill-rule="evenodd" clip-rule="evenodd" d="M235.491 333.66C232.172 329.372 230.228 324.168 230.228 318.558C230.228 303.891 243.517 292 259.911 292C276.304 292 289.593 303.891 289.593 318.558C289.593 324.168 287.649 329.372 284.331 333.66L235.491 333.66Z" fill="black"/>
<ellipse cx="10.9357" cy="9.89419" rx="10.9357" ry="9.89419" transform="matrix(-1 0 0 1 129.203 305.539)" fill="white"/>
<ellipse cx="10.9357" cy="9.89419" rx="10.9357" ry="9.89419" transform="matrix(-1 0 0 1 260.432 305.539)" fill="white"/>
<defs>
<filter id="filter0_i_250_3" x="10" y="265" width="372" height="360" filterUnits="userSpaceOnUse" color-interpolation-filters="sRGB">
<feFlood flood-opacity="0" result="BackgroundImageFix"/>
<feBlend mode="normal" in="SourceGraphic" in2="BackgroundImageFix" result="shape"/>
<feColorMatrix in="SourceAlpha" type="matrix" values="0 0 0 0 0 0 0 0 0 0 0 0 0 0 0 0 0 0 127 0" result="hardAlpha"/>
<feOffset dy="4"/>
<feGaussianBlur stdDeviation="36"/>
<feComposite in2="hardAlpha" operator="arithmetic" k2="-1" k3="1"/>
<feColorMatrix type="matrix" values="0 0 0 0 0.0714375 0 0 0 0 0.0960437 0 0 0 0 0.3175 0 0 0 1 0"/>
<feBlend mode="normal" in2="shape" result="effect1_innerShadow_250_3"/>
</filter>
<filter id="filter1_i_250_3" x="65" y="0" width="262" height="215" filterUnits="userSpaceOnUse" color-interpolation-filters="sRGB">
<feFlood flood-opacity="0" result="BackgroundImageFix"/>
<feBlend mode="normal" in="SourceGraphic" in2="BackgroundImageFix" result="shape"/>
<feColorMatrix in="SourceAlpha" type="matrix" values="0 0 0 0 0 0 0 0 0 0 0 0 0 0 0 0 0 0 127 0" result="hardAlpha"/>
<feOffset dy="4"/>
<feGaussianBlur stdDeviation="22.5"/>
<feComposite in2="hardAlpha" operator="arithmetic" k2="-1" k3="1"/>
<feColorMatrix type="matrix" values="0 0 0 0 0.475 0 0 0 0 0.937 0 0 0 0 1 0 0 0 1 0"/>
<feBlend mode="normal" in2="shape" result="effect1_innerShadow_250_3"/>
</filter>
</defs>
</svg>
