<svg width="131" height="102" fill="none" xmlns="http://www.w3.org/2000/svg"><mask id="a" fill="#fff"><path fill-rule="evenodd" clip-rule="evenodd" d="M2 0 0 2v73c0 2 1 2 2 2h92l17 23c1 2 4 1 4-1V77h14c1 0 2 0 2-2V2l-2-2H2Z"/></mask><path d="m94 77 4-3-1-2h-3v5Zm17 23 4-3-4 3Zm4-1h-5 5Zm0-22v-5h-5v5h5ZM5 2c0 2-1 3-3 3V-5c-4 0-7 4-7 7H5Zm0 73V2H-5v73H5Zm-3-3c2 0 3 2 3 3H-5c0 4 3 7 7 7V72Zm92 0H2v10h92V72Zm21 25L98 74l-8 6 17 23 8-6Zm-5 2c0-3 3-4 5-2l-8 6c4 6 13 3 13-4h-10Zm0-22v22h10V77h-10Zm19-5h-14v10h14V72Zm-3 3c0-1 1-3 3-3v10c4 0 7-3 7-7h-10Zm0-73v73h10V2h-10Zm3 3c-2 0-3-1-3-3h10c0-3-3-7-7-7V5ZM2 5h127V-5H2V5Z" fill="#C5D2F4" mask="url(#a)"/><rect x="20" y="15.4" width="89" height="6" rx="1" fill="#fff"/><rect x="20" y="34.4" width="66" height="7" rx="1" fill="#fff"/><rect x="20" y="54.4" width="41" height="6" rx="1" fill="#fff"/></svg>