<svg width="131" height="78" fill="none" xmlns="http://www.w3.org/2000/svg"><mask id="a" fill="#fff"><path d="m0 2 2-2h127l2 2v73c0 2-1 2-2 2H2c-1 0-2 0-2-2V2Z"/></mask><path d="M6 2c0 3-2 4-4 4V-6c-4 0-8 4-8 8H6ZM2 6h127V-6H2V6Zm127 0c-2 0-4-1-4-4h12c0-4-4-8-8-8V6Zm-4-4v73h12V2h-12Zm0 73c0-2 2-4 4-4v12c4 0 8-3 8-8h-12Zm4-4H2v12h127V71ZM2 71c2 0 4 2 4 4H-6c0 5 4 8 8 8V71Zm4 4V2H-6v73H6Z" fill="#C5D2F4" mask="url(#a)"/><path d="M21 42a12 12 0 1 1 24 0v1l-1 1H22l-1-1v-1Z" fill="#fff"/><circle cx="32.6" cy="22" r="6.6" fill="#fff"/><circle cx="81.4" cy="31.3" r="13.8" transform="rotate(-23 81 31)" stroke="#C5D2F4" stroke-width="5"/><path fill="#C5D2F4" d="m91 44 3-4 5 3-3 4z"/><path stroke="#C5D2F4" stroke-width="5" d="m94 49 6-7 13 10-6 8z"/><rect x="16" y="55.4" width="52" height="6" rx="1" fill="#fff"/></svg>