<svg width="641" height="641" viewBox="0 0 641 641" fill="none" xmlns="http://www.w3.org/2000/svg">
<path d="M641 320.5C641 497.507 497.507 641 320.5 641C143.493 641 0 497.507 0 320.5C0 143.493 143.493 0 320.5 0C497.507 0 641 143.493 641 320.5Z" fill="url(#paint0_radial_142_73)" fill-opacity="0.5"/>
<path d="M96.5894 200.203H563.729V433.773H96.5894V200.203Z" fill="#9665FD"/>
<path d="M96.5894 200.203H563.729V279.23H96.5894V200.203Z" fill="#75F7FF" fill-opacity="0.25"/>
<path d="M97 200H564V209H97V200Z" fill="#75F7FF" fill-opacity="0.67"/>
<path d="M96.5894 221.277H563.729V230.058H96.5894V221.277Z" fill="#75F7FF" fill-opacity="0.67"/>
<path d="M96.5894 240.595H563.729V251.132H96.5894V240.595Z" fill="#75F7FF" fill-opacity="0.67"/>
<path d="M96.5894 261.668H563.729V270.449H96.5894V261.668Z" fill="#75F7FF" fill-opacity="0.67"/>
<path d="M400.404 315.519C400.404 312.935 402.508 310.841 405.102 310.841H543.224C545.819 310.841 547.922 312.935 547.922 315.519V420.313C547.922 422.897 545.819 424.992 543.224 424.992H405.102C402.508 424.992 400.404 422.897 400.404 420.313V315.519Z" fill="#1541DC"/>
<path d="M124.687 315.519C124.687 312.935 126.79 310.841 129.385 310.841H267.507C270.101 310.841 272.205 312.935 272.205 315.519V420.313C272.205 422.897 270.101 424.992 267.507 424.992H129.385C126.79 424.992 124.687 422.897 124.687 420.313V315.519Z" fill="#1541DC"/>
<path d="M168.592 224.094C168.592 221.568 170.696 219.521 173.29 219.521H311.412C314.007 219.521 316.11 221.568 316.11 224.094V258.851C316.11 261.377 314.007 263.425 311.412 263.425H173.29C170.696 263.425 168.592 261.377 168.592 258.851V224.094Z" fill="#1541DC"/>
<path d="M296.792 315.485C296.792 312.92 298.882 310.841 301.46 310.841H365.882C368.46 310.841 370.55 312.92 370.55 315.485V418.591C370.55 421.156 368.46 423.235 365.882 423.235H301.46C298.882 423.235 296.792 421.156 296.792 418.591V315.485Z" fill="#1541DC"/>
<path d="M125.623 284.942C125.623 282.343 127.689 280.236 130.238 280.236H278.842C281.391 280.236 283.457 282.343 283.457 284.942V420.48C283.457 423.079 281.391 425.186 278.842 425.186H130.238C127.689 425.186 125.623 423.079 125.623 420.48V284.942Z" fill="#FF54DA" fill-opacity="0.75"/>
<path d="M386.532 284.942C386.532 282.343 388.641 280.236 391.241 280.236H542.878C545.479 280.236 547.587 282.343 547.587 284.942V420.48C547.587 423.079 545.479 425.186 542.878 425.186H391.241C388.641 425.186 386.532 423.079 386.532 420.48V284.942Z" fill="#FF54DA" fill-opacity="0.75"/>
<path d="M115.845 191.422C112.6 191.422 109.676 190.61 107.074 188.987C104.442 187.364 102.322 185.181 100.714 182.437C99.1352 179.692 98.3457 176.623 98.3457 173.23V144.503C98.3457 141.198 99.1498 138.188 100.758 135.474C102.337 132.729 104.457 130.546 107.117 128.923C109.778 127.27 112.687 126.444 115.845 126.444C119.149 126.444 122.132 127.241 124.792 128.834C127.453 130.457 129.558 132.626 131.108 135.341C132.687 138.056 133.476 141.11 133.476 144.503V148.664C133.476 148.9 133.33 149.018 133.038 149.018H122.95C122.716 149.018 122.599 148.9 122.599 148.664V145.211C122.599 142.91 121.956 141.006 120.67 139.501C119.383 137.996 117.775 137.244 115.845 137.244C114.12 137.244 112.585 137.967 111.24 139.413C109.895 140.859 109.223 142.556 109.223 144.503V173.23C109.223 175.207 109.88 176.918 111.196 178.364C112.512 179.781 114.062 180.489 115.845 180.489C117.775 180.489 119.383 179.796 120.67 178.409C121.956 176.992 122.599 175.266 122.599 173.23V168.759H116.328C116.006 168.759 115.845 168.612 115.845 168.317V158.18C115.845 157.885 116.006 157.738 116.328 157.738H133.125C133.359 157.738 133.476 157.885 133.476 158.18V173.23C133.476 176.623 132.687 179.692 131.108 182.437C129.5 185.181 127.38 187.364 124.748 188.987C122.117 190.61 119.149 191.422 115.845 191.422Z" fill="#75F7FF"/>
<path d="M136.81 190.094L147.95 127.816C148.008 127.58 148.154 127.462 148.388 127.462H161.414C161.648 127.462 161.794 127.58 161.853 127.816L172.554 190.094C172.583 190.389 172.466 190.537 172.203 190.537H162.247C161.955 190.537 161.794 190.389 161.765 190.094L160.8 183.455H148.564L147.599 190.094C147.569 190.389 147.423 190.537 147.16 190.537H137.16C136.926 190.537 136.81 190.389 136.81 190.094ZM155.318 148.31L154.791 144.946L154.397 148.31L150.362 173.761H159.002L155.318 148.31Z" fill="#75F7FF"/>
<path d="M188.694 190.537H178.519C178.285 190.537 178.168 190.389 178.168 190.094L178.343 127.816C178.343 127.58 178.46 127.462 178.694 127.462H189.659C189.893 127.462 190.098 127.58 190.273 127.816L198.474 139.767L206.632 127.816C206.808 127.58 207.027 127.462 207.29 127.462H218.299C218.562 127.462 218.693 127.58 218.693 127.816L218.869 190.094C218.869 190.389 218.752 190.537 218.518 190.537H208.343C208.109 190.537 207.992 190.389 207.992 190.094L207.904 143.839L198.474 157.649L189.133 143.839L189.045 190.094C189.045 190.389 188.928 190.537 188.694 190.537Z" fill="#75F7FF"/>
<path d="M255.797 190.537H226.763C226.529 190.537 226.412 190.389 226.412 190.094L226.5 127.816C226.5 127.58 226.617 127.462 226.851 127.462H255.71C255.944 127.462 256.061 127.609 256.061 127.905V138.041C256.061 138.277 255.944 138.395 255.71 138.395H237.289V152.559H255.71C255.944 152.559 256.061 152.677 256.061 152.913L256.148 163.182C256.148 163.418 256.031 163.536 255.797 163.536H237.289V179.382H255.797C256.031 179.382 256.148 179.53 256.148 179.825V190.183C256.148 190.419 256.031 190.537 255.797 190.537Z" fill="#75F7FF"/>
<path d="M303.91 190.537H287.814C287.58 190.537 287.463 190.389 287.463 190.094L287.639 127.816C287.639 127.58 287.756 127.462 287.99 127.462H305.27C308.632 127.462 311.688 128.288 314.436 129.941C317.126 131.593 319.246 133.792 320.796 136.536C322.345 139.251 323.12 142.201 323.12 145.388C323.12 147.985 322.535 150.405 321.366 152.648C320.196 154.89 318.807 156.705 317.199 158.092C318.924 159.833 320.269 161.854 321.234 164.156C322.199 166.458 322.682 168.877 322.682 171.415C322.682 174.927 321.848 178.128 320.182 181.02C318.486 183.912 316.22 186.228 313.384 187.969C310.547 189.681 307.39 190.537 303.91 190.537ZM305.27 138.218H298.428V152.47H305.27C307.346 152.47 309.027 151.733 310.313 150.257C311.6 148.752 312.243 147.129 312.243 145.388C312.243 143.47 311.556 141.803 310.182 140.387C308.808 138.941 307.17 138.218 305.27 138.218ZM303.91 163.448H298.428L298.34 179.471H303.91C306.074 179.471 307.93 178.674 309.48 177.081C311.03 175.487 311.805 173.599 311.805 171.415C311.805 169.231 311.03 167.358 309.48 165.794C307.93 164.23 306.074 163.448 303.91 163.448Z" fill="#75F7FF"/>
<path d="M345.663 191.422C342.506 191.422 339.582 190.596 336.892 188.943C334.202 187.291 332.053 185.078 330.444 182.304C328.866 179.5 328.076 176.446 328.076 173.141L328.252 127.816C328.252 127.58 328.369 127.462 328.602 127.462H338.69C338.924 127.462 339.041 127.58 339.041 127.816V173.141C339.041 175.177 339.684 176.918 340.971 178.364C342.257 179.781 343.821 180.489 345.663 180.489C347.593 180.489 349.201 179.781 350.488 178.364C351.774 176.918 352.418 175.177 352.418 173.141V127.816C352.418 127.58 352.535 127.462 352.768 127.462H362.856C363.09 127.462 363.207 127.58 363.207 127.816L363.382 173.141C363.382 176.476 362.593 179.545 361.014 182.348C359.406 185.122 357.271 187.335 354.61 188.987C351.95 190.61 348.967 191.422 345.663 191.422Z" fill="#75F7FF"/>
<path d="M381.057 190.537H370.882C370.59 190.537 370.443 190.389 370.443 190.094L370.531 127.816C370.531 127.58 370.648 127.462 370.882 127.462H380.969C381.203 127.462 381.32 127.58 381.32 127.816L381.408 190.094C381.408 190.389 381.291 190.537 381.057 190.537Z" fill="#75F7FF"/>
<path d="M418.688 190.537H389.653C389.419 190.537 389.302 190.389 389.302 190.094L389.39 127.905C389.39 127.609 389.536 127.462 389.829 127.462H399.829C400.121 127.462 400.267 127.609 400.267 127.905L400.179 179.382H418.688C418.98 179.382 419.126 179.53 419.126 179.825V190.094C419.126 190.389 418.98 190.537 418.688 190.537Z" fill="#75F7FF"/>
<path d="M441.538 190.448L425.442 190.537C425.149 190.537 425.003 190.389 425.003 190.094L425.179 127.816C425.179 127.58 425.296 127.462 425.53 127.462L442.327 127.373C445.661 127.285 448.672 128.052 451.362 129.675C454.081 131.298 456.245 133.496 457.853 136.27C459.491 139.015 460.309 142.054 460.309 145.388V171.415C460.309 174.897 459.476 178.084 457.809 180.976C456.113 183.838 453.862 186.125 451.055 187.837C448.248 189.519 445.076 190.389 441.538 190.448ZM442.327 138.218L436.056 138.306L435.968 179.382H441.538C443.76 179.382 445.631 178.6 447.152 177.036C448.672 175.472 449.432 173.599 449.432 171.415V145.3C449.432 143.382 448.731 141.715 447.327 140.298C445.924 138.852 444.257 138.159 442.327 138.218Z" fill="#75F7FF"/>
<path d="M477.984 190.537H467.809C467.517 190.537 467.37 190.389 467.37 190.094L467.458 127.816C467.458 127.58 467.575 127.462 467.809 127.462H477.897C478.13 127.462 478.247 127.58 478.247 127.816L478.335 190.094C478.335 190.389 478.218 190.537 477.984 190.537Z" fill="#75F7FF"/>
<path d="M496.01 190.537H487.019C486.551 190.537 486.317 190.33 486.317 189.917L486.23 128.17C486.23 127.698 486.464 127.462 486.931 127.462H495.045L510.22 163.182L509.782 128.17C509.782 127.698 510.045 127.462 510.571 127.462H519.474C519.825 127.462 520.001 127.698 520.001 128.17L520.088 190.006C520.088 190.36 519.942 190.537 519.65 190.537H511.755L496.185 157.162L496.843 189.828C496.843 190.301 496.566 190.537 496.01 190.537Z" fill="#75F7FF"/>
<path d="M544.342 191.422C541.096 191.422 538.173 190.61 535.57 188.987C532.939 187.364 530.819 185.181 529.211 182.437C527.632 179.692 526.843 176.623 526.843 173.23V144.503C526.843 141.198 527.647 138.188 529.255 135.474C530.834 132.729 532.953 130.546 535.614 128.923C538.275 127.27 541.184 126.444 544.342 126.444C547.646 126.444 550.628 127.241 553.289 128.834C555.95 130.457 558.055 132.626 559.605 135.341C561.184 138.056 561.973 141.11 561.973 144.503V148.664C561.973 148.9 561.827 149.018 561.535 149.018H551.447C551.213 149.018 551.096 148.9 551.096 148.664V145.211C551.096 142.91 550.453 141.006 549.166 139.501C547.88 137.996 546.272 137.244 544.342 137.244C542.617 137.244 541.082 137.967 539.737 139.413C538.392 140.859 537.719 142.556 537.719 144.503V173.23C537.719 175.207 538.377 176.918 539.693 178.364C541.009 179.781 542.558 180.489 544.342 180.489C546.272 180.489 547.88 179.796 549.166 178.409C550.453 176.992 551.096 175.266 551.096 173.23V168.759H544.824C544.503 168.759 544.342 168.612 544.342 168.317V158.18C544.342 157.885 544.503 157.738 544.824 157.738H561.622C561.856 157.738 561.973 157.885 561.973 158.18V173.23C561.973 176.623 561.184 179.692 559.605 182.437C557.997 185.181 555.877 187.364 553.245 188.987C550.614 190.61 547.646 191.422 544.342 191.422Z" fill="#75F7FF"/>
<path d="M342.451 371.436C342.451 370.235 342.719 369.167 343.255 368.234C343.791 367.31 344.504 366.585 345.394 366.058C346.294 365.541 347.28 365.282 348.352 365.282L357.668 365.31C358.759 365.31 359.74 365.573 360.611 366.1C361.492 366.617 362.195 367.338 362.721 368.262C363.257 369.186 363.525 370.244 363.525 371.436C363.525 372.655 363.262 373.718 362.736 374.623C362.209 375.529 361.501 376.24 360.611 376.758C359.731 377.284 358.75 377.548 357.668 377.548L348.352 377.575C347.289 377.575 346.308 377.317 345.409 376.799C344.509 376.273 343.791 375.547 343.255 374.623C342.719 373.709 342.451 372.646 342.451 371.436ZM348.352 374.138L357.668 374.111C358.357 374.111 358.917 373.861 359.348 373.362C359.779 372.872 359.994 372.23 359.994 371.436C359.994 370.623 359.779 369.971 359.348 369.482C358.917 368.992 358.357 368.747 357.668 368.747L348.352 368.747C347.624 368.747 347.05 368.992 346.629 369.482C346.208 369.971 345.997 370.623 345.997 371.436C345.997 372.23 346.208 372.877 346.629 373.376C347.05 373.884 347.624 374.138 348.352 374.138Z" fill="#75F7FF"/>
<path d="M218.514 251.132C217.429 251.132 216.428 250.864 215.512 250.328C214.606 249.792 213.874 249.079 213.317 248.189C212.769 247.289 212.496 246.303 212.496 245.231L212.525 235.915C212.525 234.824 212.799 233.843 213.347 232.972C213.884 232.091 214.611 231.388 215.527 230.862C216.443 230.326 217.439 230.058 218.514 230.058C219.629 230.058 220.629 230.321 221.515 230.847C222.411 231.374 223.128 232.082 223.666 232.972C224.213 233.852 224.487 234.833 224.487 235.915L224.517 245.231C224.517 246.303 224.248 247.284 223.711 248.174C223.163 249.074 222.436 249.792 221.53 250.328C220.624 250.864 219.619 251.132 218.514 251.132ZM218.514 247.586C219.131 247.586 219.669 247.347 220.127 246.868C220.585 246.38 220.813 245.834 220.813 245.231L220.784 235.915C220.784 235.264 220.57 234.714 220.141 234.264C219.713 233.814 219.171 233.589 218.514 233.589C217.887 233.589 217.349 233.809 216.901 234.249C216.453 234.69 216.229 235.245 216.229 235.915V245.231C216.229 245.873 216.453 246.428 216.901 246.897C217.349 247.356 217.887 247.586 218.514 247.586Z" fill="#75F7FF"/>
<path d="M230.416 250.844H226.981C226.881 250.844 226.832 250.797 226.832 250.701L226.891 230.503C226.891 230.426 226.931 230.388 227.011 230.388H232.895C234.766 230.388 236.245 230.938 237.33 232.039C238.425 233.13 238.972 234.618 238.972 236.503C238.972 237.881 238.689 239.082 238.121 240.107C237.544 241.121 236.797 241.906 235.881 242.461C234.965 243.016 233.97 243.293 232.895 243.293H230.565V250.701C230.565 250.797 230.515 250.844 230.416 250.844ZM232.895 233.876L230.565 233.905V239.733H232.895C233.542 239.733 234.104 239.437 234.582 238.843C235.06 238.24 235.299 237.46 235.299 236.503C235.299 235.738 235.085 235.111 234.657 234.623C234.229 234.125 233.641 233.876 232.895 233.876Z" fill="#75F7FF"/>
<path d="M250.815 250.844H240.929C240.849 250.844 240.809 250.797 240.809 250.701L240.839 230.503C240.839 230.426 240.879 230.388 240.959 230.388H250.785C250.864 230.388 250.904 230.436 250.904 230.531V233.819C250.904 233.895 250.864 233.934 250.785 233.934H244.513V238.527H250.785C250.864 238.527 250.904 238.566 250.904 238.642L250.934 241.973C250.934 242.049 250.894 242.088 250.815 242.088H244.513V247.227H250.815C250.894 247.227 250.934 247.275 250.934 247.37V250.73C250.934 250.806 250.894 250.844 250.815 250.844Z" fill="#75F7FF"/>
<path d="M256.982 250.844H253.921C253.761 250.844 253.682 250.777 253.682 250.644L253.652 230.617C253.652 230.464 253.732 230.388 253.891 230.388H256.654L261.821 241.973L261.671 230.617C261.671 230.464 261.761 230.388 261.94 230.388H264.971C265.091 230.388 265.151 230.464 265.151 230.617L265.181 250.672C265.181 250.787 265.131 250.844 265.031 250.844H262.343L257.042 240.02L257.266 250.615C257.266 250.768 257.171 250.844 256.982 250.844Z" fill="#75F7FF"/>
<path d="M124.687 279.23H156.298V421.48H124.687V279.23Z" fill="#B241B5"/>
<path d="M154.542 288.011L154.542 279.23L547.923 279.23L547.923 288.011L154.542 288.011Z" fill="#B241B5" fill-opacity="0.76"/>
<path d="M228.302 345.964H266.937V421.479H228.302V345.964Z" fill="#B241B5"/>
<path d="M214.252 358.258H240.595V393.381H214.252V358.258Z" fill="#B241B5"/>
<path d="M458.359 326.646H532.118V424.992H458.359V326.646Z" fill="#B241B5"/>
<path d="M470.765 279.23L474.025 279.23C474.118 279.23 474.165 279.28 474.165 279.378L474.137 300.186C474.137 300.265 474.099 300.304 474.025 300.304L470.793 300.304C470.718 300.304 470.681 300.265 470.681 300.186L470.653 279.378C470.653 279.28 470.69 279.23 470.765 279.23Z" fill="#75F7FF"/>
<path d="M542.128 184L545.84 184C545.947 184 546 184.037 546 184.112L545.968 199.91C545.968 199.97 545.925 200 545.84 200L542.16 200C542.075 200 542.032 199.97 542.032 199.91L542 184.112C542 184.037 542.043 184 542.128 184Z" fill="#75F7FF"/>
<path d="M514.16 184.09L517.872 184.09C517.979 184.09 518.032 184.127 518.032 184.202L518 200C518 200.06 517.957 200.09 517.872 200.09L514.192 200.09C514.107 200.09 514.064 200.06 514.064 200L514.032 184.202C514.032 184.127 514.075 184.09 514.16 184.09Z" fill="#75F7FF"/>
<path d="M114.128 184L117.84 184C117.947 184 118 184.037 118 184.112L117.968 199.91C117.968 199.97 117.925 200 117.84 200L114.16 200C114.075 200 114.032 199.97 114.032 199.91L114 184.112C114 184.037 114.043 184 114.128 184Z" fill="#75F7FF"/>
<path d="M140.128 184L143.84 184C143.947 184 144 184.037 144 184.112L143.968 199.91C143.968 199.97 143.925 200 143.84 200L140.16 200C140.075 200 140.032 199.97 140.032 199.91L140 184.112C140 184.037 140.043 184 140.128 184Z" fill="#75F7FF"/>
<path d="M165.128 184L168.84 184C168.947 184 169 184.037 169 184.112L168.968 199.91C168.968 199.97 168.925 200 168.84 200L165.16 200C165.075 200 165.032 199.97 165.032 199.91L165 184.112C165 184.037 165.043 184 165.128 184Z" fill="#75F7FF"/>
<path d="M182.128 184L185.84 184C185.947 184 186 184.037 186 184.112L185.968 199.91C185.968 199.97 185.925 200 185.84 200L182.16 200C182.075 200 182.032 199.97 182.032 199.91L182 184.112C182 184.037 182.043 184 182.128 184Z" fill="#75F7FF"/>
<path d="M212.128 184L215.84 184C215.947 184 216 184.037 216 184.112L215.968 199.91C215.968 199.97 215.925 200 215.84 200L212.16 200C212.075 200 212.032 199.97 212.032 199.91L212 184.112C212 184.037 212.043 184 212.128 184Z" fill="#75F7FF"/>
<path d="M238.128 184L241.84 184C241.947 184 242 184.037 242 184.112L241.968 199.91C241.968 199.97 241.925 200 241.84 200L238.16 200C238.075 200 238.032 199.97 238.032 199.91L238 184.112C238 184.037 238.043 184 238.128 184Z" fill="#75F7FF"/>
<path d="M299.128 184L302.84 184C302.947 184 303 184.037 303 184.112L302.968 199.91C302.968 199.97 302.925 200 302.84 200L299.16 200C299.075 200 299.032 199.97 299.032 199.91L299 184.112C299 184.037 299.043 184 299.128 184Z" fill="#75F7FF"/>
<path d="M344.128 184L347.84 184C347.947 184 348 184.037 348 184.112L347.968 199.91C347.968 199.97 347.925 200 347.84 200L344.16 200C344.075 200 344.032 199.97 344.032 199.91L344 184.112C344 184.037 344.043 184 344.128 184Z" fill="#75F7FF"/>
<path d="M374.128 184L377.84 184C377.947 184 378 184.037 378 184.112L377.968 199.91C377.968 199.97 377.925 200 377.84 200L374.16 200C374.075 200 374.032 199.97 374.032 199.91L374 184.112C374 184.037 374.043 184 374.128 184Z" fill="#75F7FF"/>
<path d="M401.128 184L404.84 184C404.947 184 405 184.037 405 184.112L404.968 199.91C404.968 199.97 404.925 200 404.84 200L401.16 200C401.075 200 401.032 199.97 401.032 199.91L401 184.112C401 184.037 401.043 184 401.128 184Z" fill="#75F7FF"/>
<path d="M438.128 184L441.84 184C441.947 184 442 184.037 442 184.112L441.968 199.91C441.968 199.97 441.925 200 441.84 200L438.16 200C438.075 200 438.032 199.97 438.032 199.91L438 184.112C438 184.037 438.043 184 438.128 184Z" fill="#75F7FF"/>
<path d="M471.128 184L474.84 184C474.947 184 475 184.037 475 184.112L474.968 199.91C474.968 199.97 474.925 200 474.84 200L471.16 200C471.075 200 471.032 199.97 471.032 199.91L471 184.112C471 184.037 471.043 184 471.128 184Z" fill="#75F7FF"/>
<path d="M489.128 186L492.84 186C492.947 186 493 186.037 493 186.112L492.968 201.91C492.968 201.97 492.925 202 492.84 202L489.16 202C489.075 202 489.032 201.97 489.032 201.91L489 186.112C489 186.037 489.043 186 489.128 186Z" fill="#75F7FF"/>
<path d="M214.364 279.23L217.624 279.23C217.717 279.23 217.764 279.28 217.764 279.378L217.736 300.186C217.736 300.265 217.699 300.304 217.624 300.304L214.392 300.304C214.317 300.304 214.28 300.265 214.28 300.186L214.252 279.378C214.252 279.28 214.289 279.23 214.364 279.23Z" fill="#75F7FF"/>
<defs>
<radialGradient id="paint0_radial_142_73" cx="0" cy="0" r="1" gradientUnits="userSpaceOnUse" gradientTransform="translate(320.5 320.5) rotate(90) scale(375.22)">
<stop stop-color="#1541DC"/>
<stop offset="0.453125" stop-color="#264AC8" stop-opacity="0.57"/>
<stop offset="0.833333" stop-color="#2C53DC" stop-opacity="0.06"/>
</radialGradient>
</defs>
</svg>
