<svg width="410" height="410" viewBox="0 0 410 410" fill="none" xmlns="http://www.w3.org/2000/svg">
<circle cx="205" cy="205" r="205" fill="url(#paint0_radial_196_78)" fill-opacity="0.5"/>
<rect x="23.8755" y="59.2771" width="348.54" height="219.015" rx="9" fill="#E558E3"/>
<rect x="23.8755" y="43" width="348.54" height="219.015" rx="9" fill="#A33DA1"/>
<rect x="159.052" y="278.292" width="81.012" height="69.708" fill="#1541DC"/>
<rect x="135.974" y="343.29" width="127.17" height="19.782" rx="9" fill="#5EA2D6"/>
<rect x="47.4253" y="75.762" width="301.44" height="168.618" rx="9" fill="#3993C1"/>
<rect x="47" y="75" width="301.44" height="168.618" rx="9" fill="#7DD3FF"/>
<rect x="117" y="234" width="166" height="10" fill="#B9E7FF"/>
<rect x="179" y="108" width="158" height="76" fill="#7DD3FF"/>
<path fill-rule="evenodd" clip-rule="evenodd" d="M301.813 134.151C297.16 131.253 290.962 132.234 286.968 136.86C282.348 142.21 282.425 150.413 287.141 155.18C288.892 156.949 291.035 157.997 293.274 158.341C293.576 161.174 294.748 163.873 296.784 165.931C301.501 170.698 309.07 170.225 313.691 164.874C315.041 163.311 315.989 161.505 316.539 159.612C321.022 158.418 324.365 155.383 325.15 151.15C326.439 144.198 320.342 136.649 311.532 134.289C308.069 133.361 304.702 133.373 301.813 134.151Z" fill="white"/>
<rect x="221" y="92" width="108.343" height="61" rx="3" fill="white"/>
<rect x="221" y="98.8284" width="108.343" height="54.1716" rx="3" fill="#C8ECFF"/>
<path fill-rule="evenodd" clip-rule="evenodd" d="M98.7573 128.92C93.6076 130.486 87.9794 127.981 85.3668 122.58C82.3444 116.331 84.5023 108.571 90.1866 105.249C92.2962 104.016 94.5949 103.567 96.8064 103.81C97.8127 101.199 99.6097 98.9373 102.064 97.5025C107.749 94.1799 114.807 96.5522 117.829 102.801C118.712 104.627 119.153 106.581 119.193 108.516C123.142 110.788 125.541 114.516 125.209 118.73C124.665 125.65 116.965 131.26 108.01 131.26C104.49 131.26 101.3 130.393 98.7573 128.92Z" fill="white"/>
<path fill-rule="evenodd" clip-rule="evenodd" d="M254.447 213.037C264.062 215.514 274.57 211.551 279.448 203.007C285.091 193.122 281.062 180.847 270.448 175.591C266.51 173.641 262.218 172.931 258.089 173.315C256.21 169.186 252.855 165.608 248.272 163.338C237.658 158.082 224.48 161.835 218.837 171.72C217.188 174.608 216.365 177.699 216.29 180.76C208.917 184.353 204.439 190.251 205.057 196.917C206.073 207.863 220.451 216.738 237.171 216.738C243.743 216.738 249.7 215.366 254.447 213.037Z" fill="white"/>
<path d="M152 195.5C123.6 180.7 70.8333 180.667 48 182.5V246H348C349.167 240.333 350.8 227.5 348 221.5C344.5 214 265.5 220 245 221.5C224.5 223 187.5 214 152 195.5Z" fill="#4BDDA0"/>
<ellipse cx="4.16314" cy="4.38906" rx="4.16314" ry="4.38906" transform="matrix(-0.863332 0.504635 -0.435414 -0.90023 69.0112 95.9021)" fill="#496EB2"/>
<ellipse cx="4.16314" cy="4.38906" rx="4.16314" ry="4.38906" transform="matrix(-0.863332 0.504635 -0.435414 -0.90023 69.0112 117.32)" fill="#496EB2"/>
<ellipse cx="4.16314" cy="4.38906" rx="4.16314" ry="4.38906" transform="matrix(-0.863332 0.504635 -0.435414 -0.90023 69.0112 138.798)" fill="#496EB2"/>
<ellipse cx="4.16314" cy="4.38906" rx="4.16314" ry="4.38906" transform="matrix(-0.863332 0.504635 -0.435414 -0.90023 69.0103 160.902)" fill="#496EB2"/>
<ellipse cx="4.16314" cy="4.38906" rx="4.16314" ry="4.38906" transform="matrix(-0.863332 0.504635 -0.435414 -0.90023 69.0103 182.32)" fill="#496EB2"/>
<ellipse cx="4.16314" cy="4.38906" rx="4.16314" ry="4.38906" transform="matrix(-0.863332 0.504635 -0.435414 -0.90023 69.0103 203.798)" fill="#496EB2"/>
<path fill-rule="evenodd" clip-rule="evenodd" d="M125.16 277.932C122.537 274.542 121 270.429 121 265.994C121 254.399 131.505 245 144.464 245C157.423 245 167.928 254.399 167.928 265.994C167.928 270.429 166.391 274.542 163.768 277.932H125.16Z" fill="black"/>
<path fill-rule="evenodd" clip-rule="evenodd" d="M228.895 277.932C226.272 274.542 224.735 270.429 224.735 265.994C224.735 254.399 235.24 245 248.199 245C261.157 245 271.663 254.399 271.663 265.994C271.663 270.429 270.126 274.542 267.503 277.932H228.895Z" fill="black"/>
<ellipse cx="8.64458" cy="7.82129" rx="8.64458" ry="7.82129" transform="matrix(-1 0 0 1 144.875 255.703)" fill="white"/>
<ellipse cx="8.64458" cy="7.82129" rx="8.64458" ry="7.82129" transform="matrix(-1 0 0 1 248.61 255.703)" fill="white"/>
<defs>
<radialGradient id="paint0_radial_196_78" cx="0" cy="0" r="1" gradientUnits="userSpaceOnUse" gradientTransform="translate(205 205) rotate(90) scale(240)">
<stop stop-color="#1541DC"/>
<stop offset="0.453125" stop-color="#264AC8" stop-opacity="0.57"/>
<stop offset="0.833333" stop-color="#2C53DC" stop-opacity="0.06"/>
</radialGradient>
</defs>
</svg>
