<svg width="498" height="538" viewBox="0 0 498 538" fill="none" xmlns="http://www.w3.org/2000/svg">
<circle cx="249" cy="278.001" r="249" fill="url(#paint0_radial_272_43)" fill-opacity="0.5"/>
<g filter="url(#filter0_dd_272_43)">
<rect x="401" y="529.528" width="288" height="529.529" rx="9" transform="rotate(-180 401 529.528)" fill="url(#paint1_linear_272_43)"/>
<rect x="400.5" y="529.028" width="287" height="528.529" rx="8.5" transform="rotate(-180 400.5 529.028)" stroke="#496EB2"/>
</g>
<g filter="url(#filter1_dd_272_43)">
<rect x="401" y="529.528" width="288" height="529.529" rx="9" transform="rotate(-180 401 529.528)" fill="url(#paint2_linear_272_43)"/>
</g>
<g filter="url(#filter2_dd_272_43)">
<path d="M401 417.657C401 418.548 400.868 419.433 400.608 420.284L379.445 489.627C378.289 493.413 374.796 496 370.837 496L149.615 496C145.924 496 142.607 493.746 141.248 490.314L113.633 420.597C113.215 419.542 113 418.417 113 417.282L113 9.00022C113 4.02967 117.029 0.000219315 122 0.00021975L392 0.000243354C396.971 0.000243788 401 4.02969 401 9.00024L401 417.657Z" fill="url(#paint3_linear_272_43)"/>
</g>
<rect x="132" y="90" width="251" height="61" fill="#572B56"/>
<rect x="132" y="96" width="243" height="55" fill="#A33DA1"/>
<rect x="206" y="471" width="107" height="11" rx="5.5" fill="#496EB2"/>
<path d="M359 324.044L401.103 283.766L401.079 290.83L362.59 327.473L359 324.044Z" fill="#A9BCFE"/>
<path d="M306 131L364.266 131.06V136.143L306.218 135.96L306 131Z" fill="#A9BCFE"/>
<path d="M359 352.321L401.103 312.044L401.079 319.107L362.59 355.75L359 352.321Z" fill="#A9BCFE"/>
<path d="M359 380.321L401.103 340.044L401.079 347.107L362.59 383.75L359 380.321Z" fill="#A9BCFE"/>
<path d="M155.621 324.044L113.517 283.766L113.542 290.83L152.031 327.473L155.621 324.044Z" fill="#A9BCFE"/>
<path d="M155.621 352.322L113.517 312.044L113.542 319.108L152.031 355.751L155.621 352.322Z" fill="#A9BCFE"/>
<path d="M155.621 380.322L113.517 340.044L113.542 347.108L152.031 383.751L155.621 380.322Z" fill="#A9BCFE"/>
<rect x="349" y="62.0002" width="53" height="7" transform="rotate(180 349 62.0002)" fill="#86ADF5"/>
<rect x="183" y="408" width="120" height="5.00001" transform="rotate(-90 183 408)" fill="#496EB2"/>
<rect x="335" y="408" width="120" height="5.00001" transform="rotate(-90 335 408)" fill="#496EB2"/>
<g filter="url(#filter3_d_272_43)">
<circle cx="257" cy="337" r="25" fill="#FF9DFE"/>
</g>
<path fill-rule="evenodd" clip-rule="evenodd" d="M253.805 315.572C243.478 317.167 235.572 326.094 235.572 336.868C235.572 348.77 245.22 358.418 257.122 358.418C269.024 358.418 278.672 348.77 278.672 336.868C278.672 326.094 270.764 317.166 260.436 315.572V319.778C268.464 321.325 274.527 328.389 274.527 336.868C274.527 346.481 266.735 354.274 257.122 354.274C247.509 354.274 239.716 346.481 239.716 336.868C239.716 328.389 245.779 321.326 253.805 319.778V315.572Z" fill="#75F7FF"/>
<rect x="255.214" y="312" width="3.57143" height="30.3571" fill="#75F7FF"/>
<rect x="132" y="21" width="251" height="61" fill="#572B56"/>
<rect x="132" y="26" width="243" height="56" fill="#A33DA1"/>
<path d="M306 59L364.266 59.0604V64.1429L306.218 63.9595L306 59Z" fill="#A9BCFE"/>
<ellipse cx="6.12839" cy="6.33613" rx="6.12839" ry="6.33613" transform="matrix(0.491517 0.870868 -0.8941 0.447867 153.978 128)" fill="#4BDD9F"/>
<ellipse cx="6.12839" cy="6.33613" rx="6.12839" ry="6.33613" transform="matrix(0.491517 0.870868 -0.8941 0.447867 153.978 59)" fill="#4BDD9F"/>
<ellipse cx="6.12839" cy="6.33613" rx="6.12839" ry="6.33613" transform="matrix(0.491517 0.870868 -0.8941 0.447867 181.976 128)" fill="#F91639"/>
<ellipse cx="6.12839" cy="6.33613" rx="6.12839" ry="6.33613" transform="matrix(0.491517 0.870868 -0.8941 0.447867 181.976 59)" fill="#F91639"/>
<path fill-rule="evenodd" clip-rule="evenodd" d="M186.16 450.932C183.537 447.542 182 443.429 182 438.994C182 427.399 192.505 418 205.464 418C218.423 418 228.928 427.399 228.928 438.994C228.928 443.429 227.391 447.542 224.768 450.932H186.16Z" fill="black"/>
<path fill-rule="evenodd" clip-rule="evenodd" d="M289.895 450.932C287.272 447.542 285.735 443.429 285.735 438.994C285.735 427.399 296.24 418 309.199 418C322.157 418 332.663 427.399 332.663 438.994C332.663 443.429 331.126 447.542 328.503 450.932H289.895Z" fill="black"/>
<ellipse cx="8.64458" cy="7.82129" rx="8.64458" ry="7.82129" transform="matrix(-1 0 0 1 205.875 428.703)" fill="white"/>
<ellipse cx="8.64458" cy="7.82129" rx="8.64458" ry="7.82129" transform="matrix(-1 0 0 1 309.61 428.703)" fill="white"/>
<defs>
<filter id="filter0_dd_272_43" x="109" y="-0.000244141" width="296" height="537.529" filterUnits="userSpaceOnUse" color-interpolation-filters="sRGB">
<feFlood flood-opacity="0" result="BackgroundImageFix"/>
<feColorMatrix in="SourceAlpha" type="matrix" values="0 0 0 0 0 0 0 0 0 0 0 0 0 0 0 0 0 0 127 0" result="hardAlpha"/>
<feOffset dy="4"/>
<feGaussianBlur stdDeviation="2"/>
<feComposite in2="hardAlpha" operator="out"/>
<feColorMatrix type="matrix" values="0 0 0 0 0 0 0 0 0 0 0 0 0 0 0 0 0 0 0.25 0"/>
<feBlend mode="normal" in2="BackgroundImageFix" result="effect1_dropShadow_272_43"/>
<feColorMatrix in="SourceAlpha" type="matrix" values="0 0 0 0 0 0 0 0 0 0 0 0 0 0 0 0 0 0 127 0" result="hardAlpha"/>
<feOffset dy="4"/>
<feGaussianBlur stdDeviation="2"/>
<feComposite in2="hardAlpha" operator="out"/>
<feColorMatrix type="matrix" values="0 0 0 0 0 0 0 0 0 0 0 0 0 0 0 0 0 0 0.25 0"/>
<feBlend mode="normal" in2="effect1_dropShadow_272_43" result="effect2_dropShadow_272_43"/>
<feBlend mode="normal" in="SourceGraphic" in2="effect2_dropShadow_272_43" result="shape"/>
</filter>
<filter id="filter1_dd_272_43" x="109" y="-0.000244141" width="296" height="537.529" filterUnits="userSpaceOnUse" color-interpolation-filters="sRGB">
<feFlood flood-opacity="0" result="BackgroundImageFix"/>
<feColorMatrix in="SourceAlpha" type="matrix" values="0 0 0 0 0 0 0 0 0 0 0 0 0 0 0 0 0 0 127 0" result="hardAlpha"/>
<feOffset dy="4"/>
<feGaussianBlur stdDeviation="2"/>
<feComposite in2="hardAlpha" operator="out"/>
<feColorMatrix type="matrix" values="0 0 0 0 0 0 0 0 0 0 0 0 0 0 0 0 0 0 0.25 0"/>
<feBlend mode="normal" in2="BackgroundImageFix" result="effect1_dropShadow_272_43"/>
<feColorMatrix in="SourceAlpha" type="matrix" values="0 0 0 0 0 0 0 0 0 0 0 0 0 0 0 0 0 0 127 0" result="hardAlpha"/>
<feOffset dy="4"/>
<feComposite in2="hardAlpha" operator="out"/>
<feColorMatrix type="matrix" values="0 0 0 0 0 0 0 0 0 0 0 0 0 0 0 0 0 0 0.25 0"/>
<feBlend mode="normal" in2="effect1_dropShadow_272_43" result="effect2_dropShadow_272_43"/>
<feBlend mode="normal" in="SourceGraphic" in2="effect2_dropShadow_272_43" result="shape"/>
</filter>
<filter id="filter2_dd_272_43" x="109" y="0.000244141" width="296" height="504" filterUnits="userSpaceOnUse" color-interpolation-filters="sRGB">
<feFlood flood-opacity="0" result="BackgroundImageFix"/>
<feColorMatrix in="SourceAlpha" type="matrix" values="0 0 0 0 0 0 0 0 0 0 0 0 0 0 0 0 0 0 127 0" result="hardAlpha"/>
<feOffset dy="4"/>
<feGaussianBlur stdDeviation="2"/>
<feComposite in2="hardAlpha" operator="out"/>
<feColorMatrix type="matrix" values="0 0 0 0 0 0 0 0 0 0 0 0 0 0 0 0 0 0 0.25 0"/>
<feBlend mode="normal" in2="BackgroundImageFix" result="effect1_dropShadow_272_43"/>
<feColorMatrix in="SourceAlpha" type="matrix" values="0 0 0 0 0 0 0 0 0 0 0 0 0 0 0 0 0 0 127 0" result="hardAlpha"/>
<feOffset dy="4"/>
<feComposite in2="hardAlpha" operator="out"/>
<feColorMatrix type="matrix" values="0 0 0 0 0 0 0 0 0 0 0 0 0 0 0 0 0 0 0.25 0"/>
<feBlend mode="normal" in2="effect1_dropShadow_272_43" result="effect2_dropShadow_272_43"/>
<feBlend mode="normal" in="SourceGraphic" in2="effect2_dropShadow_272_43" result="shape"/>
</filter>
<filter id="filter3_d_272_43" x="232" y="312" width="50" height="54" filterUnits="userSpaceOnUse" color-interpolation-filters="sRGB">
<feFlood flood-opacity="0" result="BackgroundImageFix"/>
<feColorMatrix in="SourceAlpha" type="matrix" values="0 0 0 0 0 0 0 0 0 0 0 0 0 0 0 0 0 0 127 0" result="hardAlpha"/>
<feOffset dy="4"/>
<feComposite in2="hardAlpha" operator="out"/>
<feColorMatrix type="matrix" values="0 0 0 0 0 0 0 0 0 0 0 0 0 0 0 0 0 0 0.25 0"/>
<feBlend mode="normal" in2="BackgroundImageFix" result="effect1_dropShadow_272_43"/>
<feBlend mode="normal" in="SourceGraphic" in2="effect1_dropShadow_272_43" result="shape"/>
</filter>
<radialGradient id="paint0_radial_272_43" cx="0" cy="0" r="1" gradientUnits="userSpaceOnUse" gradientTransform="translate(249 278.001) rotate(90) scale(291.512)">
<stop stop-color="#1541DC"/>
<stop offset="0.453125" stop-color="#264AC8" stop-opacity="0.57"/>
<stop offset="0.833333" stop-color="#2C53DC" stop-opacity="0.06"/>
</radialGradient>
<linearGradient id="paint1_linear_272_43" x1="375.93" y1="736.509" x2="545" y2="1059.06" gradientUnits="userSpaceOnUse">
<stop stop-color="#E558E3"/>
</linearGradient>
<linearGradient id="paint2_linear_272_43" x1="375.93" y1="736.509" x2="545" y2="1059.06" gradientUnits="userSpaceOnUse">
<stop stop-color="#E558E3"/>
</linearGradient>
<linearGradient id="paint3_linear_272_43" x1="426.07" y1="302.125" x2="273.706" y2="-8.20204" gradientUnits="userSpaceOnUse">
<stop stop-color="#FF9DFE"/>
</linearGradient>
</defs>
</svg>
