<svg width="913" height="912" viewBox="0 0 913 912" fill="none" xmlns="http://www.w3.org/2000/svg">
<path fill-rule="evenodd" clip-rule="evenodd" d="M371.873 588.273L321.52 588.183L321.796 608.254L361.178 607.712L360.44 588.717L371.873 588.273ZM396.116 588.316L396.85 607.222L584.949 604.637L583.753 588.652L396.116 588.316Z" fill="#D2C233"/>
<path d="M328.974 589.567L334.178 589.496L334.423 607.337L329.22 607.408L328.974 589.567Z" fill="#4C597A"/>
<path d="M436.501 588.47L441.704 588.398L441.955 606.646L436.752 606.718L436.501 588.47Z" fill="#4C597A"/>
<path d="M342.354 589.383L347.558 589.312L347.803 607.153L342.599 607.224L342.354 589.383Z" fill="#4C597A"/>
<path d="M450.198 588.341L456.145 588.259L456.401 606.886L450.454 606.968L450.198 588.341Z" fill="#4C597A"/>
<path d="M355.736 589.199L360.939 589.128L361.185 606.969L355.981 607.04L355.736 589.199Z" fill="#4C597A"/>
<path d="M464.291 588.718L469.494 588.646L469.74 606.487L464.536 606.559L464.291 588.718Z" fill="#4C597A"/>
<path d="M478.347 588.352L483.551 588.281L483.796 606.121L478.593 606.193L478.347 588.352Z" fill="#4C597A"/>
<path d="M491.729 588.168L496.932 588.097L497.177 605.938L491.974 606.009L491.729 588.168Z" fill="#4C597A"/>
<path d="M545.576 587.823L550.78 587.751L551.025 605.592L545.822 605.664L545.576 587.823Z" fill="#4C597A"/>
<path d="M396.62 588.638L401.824 588.566L402.069 606.407L396.866 606.479L396.62 588.638Z" fill="#4C597A"/>
<path d="M505.109 587.985L510.313 587.913L510.558 605.754L505.354 605.826L505.109 587.985Z" fill="#4C597A"/>
<path d="M558.957 587.639L564.161 587.567L564.406 605.408L559.202 605.48L558.957 587.639Z" fill="#4C597A"/>
<path d="M410.002 588.454L415.205 588.382L415.451 606.223L410.247 606.295L410.002 588.454Z" fill="#4C597A"/>
<path d="M519.075 587.757L524.279 587.686L524.524 605.527L519.32 605.598L519.075 587.757Z" fill="#4C597A"/>
<path d="M572.338 587.455L577.541 587.384L577.786 605.224L572.583 605.296L572.338 587.455Z" fill="#4C597A"/>
<path d="M423.472 588.795L428.675 588.724L428.93 607.225L423.726 607.296L423.472 588.795Z" fill="#4C597A"/>
<path d="M532.456 587.573L537.659 587.502L537.905 605.343L532.701 605.414L532.456 587.573Z" fill="#4C597A"/>
<path d="M360.861 588.995L361.794 607.417L321.667 607.971L321.416 589.365L360.861 588.995ZM360.861 588.995L396.524 588.178M396.524 588.178L397.208 607.034L584.569 605.275L584.436 588.468L396.524 588.178Z" stroke="black"/>
<path d="M209.964 213.256L702.101 212.636L702.576 589.809L210.44 590.429L209.964 213.256Z" fill="#3A3E47"/>
<path d="M231.849 229.984L680.26 229.419L680.693 573.081L232.282 573.646L231.849 229.984Z" fill="#202329"/>
<path d="M359.212 224.596L400.747 225.528L401.946 272.35L360.412 271.418L359.212 224.596Z" fill="#B8BDC9"/>
<path d="M430.009 226.184L471.544 227.116L472.744 273.938L431.209 273.006L430.009 226.184Z" fill="#B8BDC9"/>
<path d="M486.648 227.456L528.182 228.387L529.382 275.21L487.848 274.278L486.648 227.456Z" fill="#B8BDC9"/>
<path d="M279.186 313.779L279.248 363.478L217.428 363.556L217.365 313.857L279.186 313.779Z" fill="#B8BDC9"/>
<path d="M692.531 313.258L692.593 362.956L630.773 363.034L630.711 313.336L692.531 313.258Z" fill="#B8BDC9"/>
<path d="M279.297 403.479L279.36 453.177L217.54 453.255L217.477 403.556L279.297 403.479Z" fill="#B8BDC9"/>
<path d="M692.627 389.624L692.69 439.323L630.87 439.4L630.807 389.702L692.627 389.624Z" fill="#B8BDC9"/>
<path d="M692.737 476.899L692.8 526.598L630.98 526.676L630.917 476.977L692.737 476.899Z" fill="#B8BDC9"/>
<path d="M359.212 224.596L377.917 225.016L379.117 271.838L360.412 271.418L359.212 224.596Z" fill="#DEE3EE"/>
<path d="M430.009 226.184L451.067 226.657L452.266 273.479L431.209 273.006L430.009 226.184Z" fill="#DEE3EE"/>
<path d="M486.648 227.456L507.039 227.913L508.238 274.735L487.848 274.278L486.648 227.456Z" fill="#DEE3EE"/>
<path d="M279.216 337.904L279.248 363.478L217.428 363.556L217.396 337.982L279.216 337.904Z" fill="#DEE3EE"/>
<path d="M692.531 313.258L692.566 341.013L630.746 341.091L630.711 313.336L692.531 313.258Z" fill="#DEE3EE"/>
<path d="M279.329 428.729L279.36 453.177L217.54 453.255L217.509 428.806L279.329 428.729Z" fill="#DEE3EE"/>
<path d="M691.614 389.625L691.65 418.262L630.843 418.338L630.807 389.702L691.614 389.625Z" fill="#DEE3EE"/>
<path d="M692.295 478.119L692.328 504.226L630.641 504.303L630.608 478.197L692.295 478.119Z" fill="#DEE3EE"/>
<path d="M361.472 340.128C361.467 335.71 365.044 332.123 369.462 332.118L542.903 331.899C547.321 331.894 550.907 335.471 550.913 339.889L551.078 471.232C551.084 475.65 547.507 479.236 543.088 479.242L369.648 479.46C365.23 479.466 361.644 475.889 361.638 471.47L361.472 340.128Z" fill="#FF54DA"/>
<path fill-rule="evenodd" clip-rule="evenodd" d="M673.879 617.998L489.566 618.23L489.668 698.613L673.98 698.38L673.879 617.998ZM661.995 628.333L501.476 628.535L501.552 689.073L662.072 688.871L661.995 628.333Z" fill="#FF54DA"/>
<path d="M361.862 325.167L550.486 324.929C555.732 324.923 559.991 329.171 559.998 334.417L560.177 476.68C560.184 481.927 555.936 486.186 550.689 486.192L362.065 486.43C356.819 486.436 352.56 482.189 352.553 476.942L352.374 334.679C352.368 329.432 356.615 325.174 361.862 325.167Z" stroke="white"/>
<path d="M354.956 319.81L557.378 319.555C562.625 319.549 566.883 323.796 566.89 329.043L567.083 482.038C567.089 487.285 562.841 491.543 557.595 491.55L355.173 491.805C349.926 491.811 345.668 487.564 345.661 482.317L345.468 329.322C345.462 324.075 349.709 319.817 354.956 319.81Z" stroke="white"/>
<path d="M372.162 347.753C372.157 343.335 375.734 339.749 380.152 339.743L532.235 339.552C536.654 339.546 540.24 343.123 540.245 347.542L540.392 463.607C540.397 468.025 536.82 471.611 532.402 471.617L380.318 471.809C375.9 471.814 372.314 468.237 372.308 463.819L372.162 347.753Z" fill="#94837B"/>
<path d="M622.66 405.935C622.501 411.557 621.277 415.623 618.888 418.395C616.507 421.159 612.896 422.718 607.775 423.174C602.531 423.641 599.127 424.941 597.12 428.146C595.154 431.287 594.608 436.158 594.694 443.511C594.768 449.715 596.878 469.98 599.299 491.392C601.721 512.821 604.461 535.445 605.801 546.399C606.202 549.684 603.632 552.557 600.317 552.548L488.787 552.248C485.402 552.239 482.614 554.837 481.419 557.86C480.269 560.77 478.184 564.336 474.435 567.072C470.692 569.802 465.247 571.736 457.318 571.314C440.797 570.436 434.425 559.32 432.058 552.579C430.998 549.561 428.24 547.109 424.943 547.12L313.667 547.497C310.647 547.507 308.184 545.081 308.149 542.062L306.922 437.883C306.901 436.111 306.165 434.443 304.945 433.182C302.741 430.905 298.9 426.668 295.621 421.68C292.332 416.677 289.661 410.996 289.695 405.817C289.728 400.835 292.269 395.361 295.388 390.523C298.497 385.701 302.132 381.582 304.259 379.326C305.479 378.031 306.197 376.324 306.175 374.527L305.174 289.5C305.138 286.44 307.607 283.94 310.667 283.936L421.828 283.796C422.753 283.794 423.661 283.596 424.505 283.237C426.522 282.379 430.913 280.601 435.997 279.088C441.092 277.571 446.837 276.336 451.579 276.532C455.556 276.697 460.311 277.93 464.553 279.339C468.787 280.745 472.473 282.313 474.298 283.126C475.174 283.516 476.117 283.727 477.084 283.726L601.467 283.569C604.567 283.565 607.057 286.123 606.972 289.222L604.357 383.49C604.279 386.299 606.009 388.809 608.489 390.024C611.211 391.358 614.83 393.431 617.734 396.143C620.644 398.86 622.768 402.153 622.66 405.935Z" stroke="white"/>
<path d="M396.822 359.692L515.613 359.543L515.73 451.667L396.938 451.817L396.822 359.692Z" fill="#2E4D4E"/>
<path d="M415.023 374.216L497.45 374.112L497.529 437.144L415.102 437.248L415.023 374.216Z" fill="#2F272C"/>
<path d="M630.194 389.425L648.256 389.403L648.319 439.225L630.257 439.247L630.194 389.425Z" fill="#7D89A6"/>
<path d="M630.543 476.306L644.828 476.288L644.892 527.307L630.607 527.325L630.543 476.306Z" fill="#7D89A6"/>
<path d="M630.792 312.83L643.586 312.813L643.649 362.835L630.855 362.852L630.792 312.83Z" fill="#7D89A6"/>
<path d="M217.34 313.871L232.129 313.852L232.192 363.703L217.403 363.721L217.34 313.871Z" fill="#7D89A6"/>
<path d="M217.237 403.606L232.439 403.587L232.501 453.122L217.299 453.141L217.237 403.606Z" fill="#7D89A6"/>
<path d="M358.958 224.496L368.119 224.701L369.317 271.483L360.157 271.277L358.958 224.496Z" fill="#7D89A6"/>
<path d="M429.769 226.484L438.929 226.69L440.128 273.471L430.968 273.266L429.769 226.484Z" fill="#7D89A6"/>
<path d="M486.653 227.35L495.813 227.556L497.012 274.337L487.852 274.132L486.653 227.35Z" fill="#7D89A6"/>
<path fill-rule="evenodd" clip-rule="evenodd" d="M323.438 320.996C334.484 320.982 343.428 312.016 343.414 300.97C343.4 289.924 334.434 280.981 323.388 280.995C312.342 281.009 303.398 289.975 303.412 301.021C303.426 312.067 312.392 321.01 323.438 320.996ZM323.429 313.575C330.376 313.566 336.001 307.927 335.992 300.98C335.984 294.033 330.345 288.408 323.397 288.417C316.45 288.426 310.825 294.064 310.834 301.012C310.843 307.959 316.482 313.584 323.429 313.575Z" fill="#EAEAEA"/>
<path fill-rule="evenodd" clip-rule="evenodd" d="M451.927 320.834C462.973 320.82 471.916 311.854 471.902 300.808C471.888 289.762 462.922 280.819 451.876 280.833C440.83 280.847 431.887 289.812 431.901 300.859C431.915 311.905 440.881 320.848 451.927 320.834ZM451.917 313.412C458.864 313.404 464.489 307.765 464.48 300.817C464.471 293.87 458.832 288.246 451.885 288.254C444.938 288.263 439.313 293.902 439.322 300.849C439.331 307.796 444.97 313.421 451.917 313.412Z" fill="#EAEAEA"/>
<path fill-rule="evenodd" clip-rule="evenodd" d="M585.264 320.666C596.31 320.652 605.254 311.686 605.24 300.64C605.226 289.594 596.26 280.651 585.214 280.665C574.168 280.679 565.224 289.645 565.238 300.691C565.252 311.737 574.218 320.68 585.264 320.666ZM585.255 313.245C592.202 313.236 597.827 307.597 597.818 300.65C597.809 293.703 592.17 288.078 585.223 288.087C578.276 288.095 572.651 293.734 572.66 300.681C572.669 307.629 578.308 313.253 585.255 313.245Z" fill="#EAEAEA"/>
<path fill-rule="evenodd" clip-rule="evenodd" d="M605.941 421.252C613.698 421.242 619.979 414.945 619.97 407.188C619.96 399.43 613.663 393.149 605.905 393.159C598.147 393.168 591.866 399.465 591.876 407.223C591.886 414.981 598.183 421.262 605.941 421.252ZM605.934 416.04C610.813 416.034 614.763 412.073 614.757 407.194C614.751 402.315 610.791 398.365 605.912 398.371C601.033 398.377 597.082 402.337 597.088 407.217C597.095 412.096 601.055 416.046 605.934 416.04Z" fill="#EAEAEA"/>
<path fill-rule="evenodd" clip-rule="evenodd" d="M591.037 567.624C602.083 567.61 611.026 558.644 611.013 547.598C610.999 536.552 602.033 527.609 590.987 527.623C579.941 527.637 570.997 536.603 571.011 547.649C571.025 558.695 579.991 567.638 591.037 567.624ZM590.977 560.014C597.924 560.005 603.549 554.366 603.54 547.419C603.531 540.472 597.892 534.847 590.945 534.856C583.998 534.864 578.373 540.503 578.382 547.451C578.391 554.398 584.03 560.023 590.977 560.014Z" fill="#EAEAEA"/>
<path fill-rule="evenodd" clip-rule="evenodd" d="M458.298 566.896C469.344 566.882 478.287 557.916 478.273 546.87C478.259 535.824 469.293 526.88 458.247 526.894C447.201 526.908 438.258 535.874 438.272 546.92C438.286 557.966 447.252 566.909 458.298 566.896ZM458.289 559.474C465.237 559.466 470.861 553.827 470.853 546.879C470.844 539.932 465.205 534.308 458.258 534.316C451.311 534.325 445.686 539.964 445.695 546.911C445.703 553.858 451.342 559.483 458.289 559.474Z" fill="#EAEAEA"/>
<path fill-rule="evenodd" clip-rule="evenodd" d="M323.748 567.064C334.794 567.051 343.737 558.085 343.723 547.039C343.709 535.993 334.743 527.049 323.697 527.063C312.651 527.077 303.708 536.043 303.722 547.089C303.736 558.135 312.702 567.078 323.748 567.064ZM323.739 559.643C330.686 559.634 336.31 553.995 336.302 547.048C336.293 540.101 330.654 534.476 323.707 534.485C316.76 534.494 311.135 540.132 311.144 547.08C311.152 554.027 316.791 559.652 323.739 559.643Z" fill="#EAEAEA"/>
<path fill-rule="evenodd" clip-rule="evenodd" d="M323.572 427.666C334.618 427.652 343.561 418.686 343.547 407.64C343.534 396.594 334.568 387.651 323.522 387.665C312.476 387.679 303.532 396.645 303.546 407.691C303.56 418.737 312.526 427.68 323.572 427.666ZM323.563 420.245C330.51 420.236 336.135 414.597 336.126 407.65C336.117 400.703 330.479 395.078 323.531 395.087C316.584 395.095 310.959 400.734 310.968 407.681C310.977 414.629 316.616 420.253 323.563 420.245Z" fill="#EAEAEA"/>
<line x1="420.996" y1="426.445" x2="491.692" y2="427.911" stroke="white" stroke-width="2"/>
<line x1="442.745" y1="414.731" x2="470.03" y2="415.438" stroke="white" stroke-width="2"/>
<line x1="481.391" y1="231.994" x2="482.075" y2="250.85" stroke="white" stroke-width="2"/>
<line x1="534.466" y1="236.044" x2="534.501" y2="263.338" stroke="white" stroke-width="2"/>
<line x1="541.163" y1="236.453" x2="540.849" y2="257.042" stroke="white" stroke-width="2"/>
<line x1="420.888" y1="382.535" x2="491.584" y2="384.001" stroke="#999999" stroke-width="2"/>
<line x1="428.291" y1="393.722" x2="481.995" y2="394.638" stroke="#999999" stroke-width="2"/>
<path d="M358.432 170.632H360.472L365.176 185.08H365.2L369.832 170.632H371.872L366.424 187H363.88L358.432 170.632ZM374.409 170.632H378.441C379.321 170.632 380.121 170.712 380.841 170.872C381.577 171.016 382.201 171.272 382.713 171.64C383.225 171.992 383.617 172.464 383.889 173.056C384.161 173.648 384.297 174.392 384.297 175.288C384.281 176.28 384.113 177.088 383.793 177.712C383.473 178.32 383.081 178.816 382.617 179.2C382.153 179.568 381.617 179.84 381.009 180.016V180.064C381.073 180.128 381.169 180.248 381.297 180.424C381.441 180.584 381.561 180.728 381.657 180.856L386.289 187H383.913L379.161 180.496H376.425V187H374.409V170.632ZM382.257 175.624C382.257 174.952 382.169 174.408 381.993 173.992C381.833 173.56 381.585 173.232 381.249 173.008C380.929 172.784 380.529 172.632 380.049 172.552C379.569 172.472 379.025 172.432 378.417 172.432H376.425V178.696H378.801C379.425 178.696 379.953 178.616 380.385 178.456C380.817 178.296 381.169 178.08 381.441 177.808C381.713 177.52 381.913 177.192 382.041 176.824C382.169 176.456 382.241 176.056 382.257 175.624ZM392.267 170.632H394.763L400.379 187H398.291L396.851 182.632H390.203L388.739 187H386.651L392.267 170.632ZM396.203 180.712L393.563 172.552H393.491L390.827 180.712H396.203ZM403.412 170.632H405.98L409.676 180.376C409.884 180.936 410.076 181.456 410.252 181.936C410.428 182.4 410.58 182.816 410.708 183.184C410.868 183.6 411.004 183.984 411.116 184.336H411.164C411.26 183.984 411.38 183.6 411.524 183.184C411.652 182.816 411.796 182.4 411.956 181.936C412.116 181.456 412.308 180.936 412.532 180.376L416.3 170.632H418.868L419.708 187H417.668L417.26 178C417.228 177.216 417.204 176.552 417.188 176.008C417.172 175.464 417.164 175.016 417.164 174.664V173.656H417.116C417.02 173.896 416.9 174.224 416.756 174.64C416.628 174.992 416.46 175.448 416.252 176.008C416.06 176.552 415.82 177.216 415.532 178L412.148 187H410.108L406.7 178C406.396 177.232 406.148 176.576 405.956 176.032C405.764 175.472 405.604 175.016 405.476 174.664C405.332 174.248 405.22 173.912 405.14 173.656H405.092C405.108 173.912 405.124 174.248 405.14 174.664C405.156 175.336 405.132 176.448 405.068 178L404.588 187H402.548L403.412 170.632Z" fill="white"/>
<path d="M571.568 650.936C570.864 650.792 570.112 650.656 569.312 650.528C568.528 650.4 567.616 650.32 566.576 650.288C565.52 650.304 564.608 650.464 563.84 650.768C563.072 651.072 562.44 651.512 561.944 652.088C561.464 652.648 561.104 653.32 560.864 654.104C560.624 654.888 560.504 655.752 560.504 656.696C560.504 657.912 560.656 658.952 560.96 659.816C561.28 660.68 561.712 661.392 562.256 661.952C562.816 662.496 563.464 662.896 564.2 663.152C564.936 663.408 565.728 663.536 566.576 663.536C567.12 663.536 567.608 663.504 568.04 663.44C568.488 663.376 568.872 663.304 569.192 663.224C569.528 663.128 569.832 663.024 570.104 662.912V658.52H567.104V656.72H572.144V663.896C571.584 664.264 570.808 664.6 569.816 664.904C568.84 665.192 567.76 665.328 566.576 665.312C565.488 665.312 564.44 665.184 563.432 664.928C562.44 664.672 561.552 664.224 560.768 663.584C560 662.928 559.384 662.04 558.92 660.92C558.456 659.8 558.224 658.384 558.224 656.672C558.224 655.28 558.44 654.072 558.872 653.048C559.304 652.008 559.888 651.152 560.624 650.48C561.376 649.792 562.24 649.28 563.216 648.944C564.208 648.592 565.256 648.416 566.36 648.416C567.08 648.416 567.776 648.456 568.448 648.536C569.12 648.6 569.736 648.68 570.296 648.776C570.856 648.856 571.392 648.96 571.904 649.088L571.568 650.936ZM575.729 648.632H579.497C581.577 648.632 583.113 649 584.105 649.736C585.113 650.472 585.617 651.712 585.617 653.456C585.617 654.416 585.433 655.216 585.065 655.856C584.697 656.496 584.233 657.016 583.673 657.416C583.129 657.8 582.537 658.08 581.897 658.256C581.257 658.416 580.665 658.496 580.121 658.496H577.745V665H575.729V648.632ZM577.745 656.696H579.953C580.497 656.696 580.985 656.648 581.417 656.552C581.865 656.44 582.249 656.264 582.569 656.024C582.889 655.768 583.137 655.432 583.313 655.016C583.489 654.584 583.577 654.048 583.577 653.408C583.577 652.768 583.481 652.256 583.289 651.872C583.113 651.472 582.841 651.168 582.473 650.96C582.121 650.752 581.673 650.616 581.129 650.552C580.585 650.472 579.953 650.432 579.233 650.432H577.745V656.696ZM590.586 648.632V658.856C590.586 659.768 590.714 660.52 590.97 661.112C591.242 661.688 591.594 662.144 592.026 662.48C592.458 662.816 592.946 663.048 593.49 663.176C594.05 663.304 594.618 663.368 595.194 663.368C595.77 663.368 596.33 663.304 596.874 663.176C597.418 663.048 597.906 662.816 598.338 662.48C598.77 662.144 599.114 661.688 599.37 661.112C599.626 660.52 599.754 659.768 599.754 658.856V648.632H601.77V659.36C601.77 660.192 601.61 660.968 601.29 661.688C600.986 662.408 600.546 663.04 599.97 663.584C599.394 664.112 598.698 664.528 597.882 664.832C597.066 665.136 596.162 665.288 595.17 665.288C593.042 665.288 591.41 664.776 590.274 663.752C589.138 662.712 588.57 661.248 588.57 659.36V648.632H590.586Z" fill="white"/>
<path fill-rule="evenodd" clip-rule="evenodd" d="M454.5 288C475.211 288 492 271.211 492 250.5C492 229.789 475.211 213 454.5 213C433.789 213 417 229.789 417 250.5C417 271.211 433.789 288 454.5 288ZM454.5 284C473.002 284 488 269.002 488 250.5C488 231.998 473.002 217 454.5 217C435.998 217 421 231.998 421 250.5C421 269.002 435.998 284 454.5 284Z" fill="#75F7FF" fill-opacity="0.51"/>
<path fill-rule="evenodd" clip-rule="evenodd" d="M509.5 288C530.211 288 547 271.211 547 250.5C547 229.789 530.211 213 509.5 213C488.789 213 472 229.789 472 250.5C472 271.211 488.789 288 509.5 288ZM509.5 284C528.002 284 543 269.002 543 250.5C543 231.998 528.002 217 509.5 217C490.998 217 476 231.998 476 250.5C476 269.002 490.998 284 509.5 284Z" fill="#75F7FF" fill-opacity="0.51"/>
<path fill-rule="evenodd" clip-rule="evenodd" d="M382.5 288C403.211 288 420 271.211 420 250.5C420 229.789 403.211 213 382.5 213C361.789 213 345 229.789 345 250.5C345 271.211 361.789 288 382.5 288ZM382.5 284C401.002 284 416 269.002 416 250.5C416 231.998 401.002 217 382.5 217C363.998 217 349 231.998 349 250.5C349 269.002 363.998 284 382.5 284Z" fill="#75F7FF" fill-opacity="0.51"/>
<path fill-rule="evenodd" clip-rule="evenodd" d="M445 190C452.18 190 458 184.18 458 177C458 169.82 452.18 164 445 164C437.82 164 432 169.82 432 177C432 184.18 437.82 190 445 190ZM445 187C450.523 187 455 182.523 455 177C455 171.477 450.523 167 445 167C439.477 167 435 171.477 435 177C435 182.523 439.477 187 445 187Z" fill="#75F7FF" fill-opacity="0.51"/>
<path fill-rule="evenodd" clip-rule="evenodd" d="M251.5 376C272.211 376 289 359.211 289 338.5C289 317.789 272.211 301 251.5 301C230.789 301 214 317.789 214 338.5C214 359.211 230.789 376 251.5 376ZM251.5 372C270.002 372 285 357.002 285 338.5C285 319.998 270.002 305 251.5 305C232.998 305 218 319.998 218 338.5C218 357.002 232.998 372 251.5 372Z" fill="#75F7FF" fill-opacity="0.51"/>
<path fill-rule="evenodd" clip-rule="evenodd" d="M251.5 468C272.211 468 289 451.211 289 430.5C289 409.789 272.211 393 251.5 393C230.789 393 214 409.789 214 430.5C214 451.211 230.789 468 251.5 468ZM251.5 464C270.002 464 285 449.002 285 430.5C285 411.998 270.002 397 251.5 397C232.998 397 218 411.998 218 430.5C218 449.002 232.998 464 251.5 464Z" fill="#75F7FF" fill-opacity="0.51"/>
<path fill-rule="evenodd" clip-rule="evenodd" d="M662.5 377C683.211 377 700 360.211 700 339.5C700 318.789 683.211 302 662.5 302C641.789 302 625 318.789 625 339.5C625 360.211 641.789 377 662.5 377ZM662.5 373C681.002 373 696 358.002 696 339.5C696 320.998 681.002 306 662.5 306C643.998 306 629 320.998 629 339.5C629 358.002 643.998 373 662.5 373Z" fill="#75F7FF" fill-opacity="0.51"/>
<path fill-rule="evenodd" clip-rule="evenodd" d="M662.5 452C683.211 452 700 435.211 700 414.5C700 393.789 683.211 377 662.5 377C641.789 377 625 393.789 625 414.5C625 435.211 641.789 452 662.5 452ZM662.5 448C681.002 448 696 433.002 696 414.5C696 395.998 681.002 381 662.5 381C643.998 381 629 395.998 629 414.5C629 433.002 643.998 448 662.5 448Z" fill="#75F7FF" fill-opacity="0.51"/>
<path fill-rule="evenodd" clip-rule="evenodd" d="M662.5 539C683.211 539 700 522.211 700 501.5C700 480.789 683.211 464 662.5 464C641.789 464 625 480.789 625 501.5C625 522.211 641.789 539 662.5 539ZM662.5 535C681.002 535 696 520.002 696 501.5C696 482.998 681.002 468 662.5 468C643.998 468 629 482.998 629 501.5C629 520.002 643.998 535 662.5 535Z" fill="#75F7FF" fill-opacity="0.51"/>
</svg>
