<svg width="616" height="574" viewBox="0 0 616 574" fill="none" xmlns="http://www.w3.org/2000/svg">
<path fill-rule="evenodd" clip-rule="evenodd" d="M327.684 490.88L284 515.924L294.253 533.181L328.114 513.064L317.997 496.969L327.684 490.88ZM348.716 478.823L358.784 494.842L520.511 398.757L511.5 385.5L348.716 478.823Z" fill="#D2C233"/>
<path d="M291.151 513.405L295.625 510.747L304.739 526.087L300.265 528.745L291.151 513.405Z" fill="#4C597A"/>
<path d="M383.792 458.808L388.266 456.15L397.588 471.84L393.114 474.498L383.792 458.808Z" fill="#4C597A"/>
<path d="M302.655 506.57L307.129 503.912L316.243 519.251L311.769 521.91L302.655 506.57Z" fill="#4C597A"/>
<path d="M395.599 451.862L400.712 448.824L410.227 464.84L405.114 467.877L395.599 451.862Z" fill="#4C597A"/>
<path d="M314.161 499.734L318.635 497.076L327.748 512.416L323.274 515.074L314.161 499.734Z" fill="#4C597A"/>
<path d="M408 445.158L412.474 442.5L421.588 457.84L417.113 460.498L408 445.158Z" fill="#4C597A"/>
<path d="M420 437.828L424.474 435.17L433.588 450.51L429.113 453.168L420 437.828Z" fill="#4C597A"/>
<path d="M431.505 430.993L435.979 428.335L445.093 443.675L440.619 446.333L431.505 430.993Z" fill="#4C597A"/>
<path d="M478 403.828L482.474 401.17L491.588 416.51L487.113 419.168L478 403.828Z" fill="#4C597A"/>
<path d="M349.313 478.85L353.787 476.192L362.901 491.531L358.427 494.189L349.313 478.85Z" fill="#4C597A"/>
<path d="M443.01 424.158L447.484 421.5L456.597 436.84L452.123 439.498L443.01 424.158Z" fill="#4C597A"/>
<path d="M489.505 396.993L493.979 394.335L503.092 409.674L498.618 412.332L489.505 396.993Z" fill="#4C597A"/>
<path d="M360.818 472.014L365.292 469.356L374.406 484.696L369.932 487.354L360.818 472.014Z" fill="#4C597A"/>
<path d="M455 416.993L459.474 414.335L468.588 429.675L464.113 432.333L455 416.993Z" fill="#4C597A"/>
<path d="M501.009 390.158L505.483 387.5L514.597 402.84L510.123 405.498L501.009 390.158Z" fill="#4C597A"/>
<path d="M372.663 465.591L377.137 462.932L386.588 478.84L382.114 481.498L372.663 465.591Z" fill="#4C597A"/>
<path d="M466.505 410.158L470.979 407.5L480.092 422.84L475.618 425.498L466.505 410.158Z" fill="#4C597A"/>
<path d="M318.5 497L328.5 512.5L294 533L284.5 517L318.5 497ZM318.5 497L349 478.5M349 478.5L359 494.5L520.5 399.5L512 385L349 478.5Z" stroke="black"/>
<path d="M0.266113 246.648L426.469 0.579856L615.056 327.222L188.853 573.29L0.266113 246.648Z" fill="#3A3E47"/>
<path d="M27.5776 250.228L415.913 26.0222L587.744 323.642L199.409 547.848L27.5776 250.228Z" fill="#202329"/>
<path d="M135.27 182.015L171.731 162.101L196.131 202.081L159.67 221.995L135.27 182.015Z" fill="#B8BDC9"/>
<path d="M197.419 148.07L233.88 128.156L258.28 168.136L221.819 188.05L197.419 148.07Z" fill="#B8BDC9"/>
<path d="M247.139 120.914L283.6 101L308 140.98L271.539 160.894L247.139 120.914Z" fill="#B8BDC9"/>
<path d="M110.409 299.232L135.258 342.272L81.7201 373.183L56.8708 330.142L110.409 299.232Z" fill="#B8BDC9"/>
<path d="M468.376 92.5587L493.226 135.599L439.688 166.509L414.838 123.469L468.376 92.5587Z" fill="#B8BDC9"/>
<path d="M155.257 376.914L180.107 419.955L126.569 450.865L101.719 407.825L155.257 376.914Z" fill="#B8BDC9"/>
<path d="M506.56 158.694L531.409 201.734L477.871 232.644L453.022 189.604L506.56 158.694Z" fill="#B8BDC9"/>
<path d="M550.197 234.277L575.047 277.317L521.509 308.227L496.659 265.187L550.197 234.277Z" fill="#B8BDC9"/>
<path d="M135.27 182.015L151.69 173.047L176.09 213.027L159.67 221.995L135.27 182.015Z" fill="#DEE3EE"/>
<path d="M197.419 148.07L215.904 137.974L240.304 177.954L221.819 188.05L197.419 148.07Z" fill="#DEE3EE"/>
<path d="M247.139 120.914L265.039 111.138L289.439 151.118L271.539 160.894L247.139 120.914Z" fill="#DEE3EE"/>
<path d="M122.471 320.125L135.258 342.272L81.7202 373.183L68.9333 351.035L122.471 320.125Z" fill="#DEE3EE"/>
<path d="M468.376 92.5587L482.254 116.595L428.716 147.505L414.838 123.469L468.376 92.5587Z" fill="#DEE3EE"/>
<path d="M167.882 398.782L180.107 419.955L126.569 450.865L114.344 429.692L167.882 398.782Z" fill="#DEE3EE"/>
<path d="M505.682 159.2L520 184L467.34 214.403L453.022 189.604L505.682 159.2Z" fill="#DEE3EE"/>
<path d="M550.422 235.554L563.475 258.163L510.053 289.006L497 266.398L550.422 235.554Z" fill="#DEE3EE"/>
<path d="M194.869 281.013C192.66 277.187 193.971 272.294 197.797 270.085L348.001 183.365C351.827 181.156 356.72 182.467 358.929 186.293L424.6 300.039C426.809 303.866 425.498 308.758 421.672 310.967L271.468 397.688C267.642 399.897 262.749 398.586 260.54 394.759L194.869 281.013Z" fill="#FF54DA"/>
<path d="M187.742 267.853L351.095 173.542C355.639 170.918 361.449 172.475 364.072 177.019L435.204 300.222C437.827 304.766 436.27 310.576 431.727 313.199L268.374 407.511C263.83 410.135 258.02 408.578 255.396 404.034L184.265 280.831C181.642 276.287 183.199 270.477 187.742 267.853Z" stroke="white"/>
<path d="M179.085 266.656L354.387 165.445C358.931 162.822 364.741 164.378 367.364 168.922L443.862 301.42C446.485 305.963 444.928 311.774 440.385 314.397L265.082 415.608C260.538 418.231 254.728 416.674 252.105 412.131L175.607 279.633C172.984 275.089 174.541 269.279 179.085 266.656Z" stroke="white"/>
<path d="M207.937 282.289C205.728 278.463 207.039 273.57 210.866 271.361L342.574 195.319C346.4 193.11 351.293 194.421 353.502 198.248L411.535 298.763C413.744 302.59 412.433 307.482 408.606 309.691L276.898 385.733C273.072 387.942 268.179 386.631 265.97 382.805L207.937 282.289Z" fill="#94837B"/>
<path d="M454.06 207.737C456.726 212.688 457.694 216.823 457.007 220.417C456.322 224 453.97 227.154 449.76 230.103C445.448 233.124 443.146 235.949 443.006 239.728C442.869 243.431 444.826 247.925 448.57 254.255C451.729 259.595 463.668 276.105 476.448 293.453C489.239 310.816 502.901 329.057 509.527 337.882C511.514 340.528 510.72 344.3 507.842 345.947L411.035 401.33C408.096 403.011 406.976 406.654 407.449 409.87C407.904 412.965 407.877 417.096 405.991 421.338C404.11 425.571 400.356 429.963 393.274 433.554C378.518 441.035 367.449 434.581 362.035 429.919C359.611 427.832 355.997 427.084 353.145 428.738L256.896 484.582C254.284 486.097 250.939 485.223 249.401 482.624L196.362 392.949C195.46 391.424 193.99 390.346 192.304 389.862C189.258 388.988 183.815 387.232 178.485 384.545C173.138 381.85 167.989 378.259 165.435 373.753C162.978 369.42 162.449 363.408 162.738 357.659C163.027 351.928 164.123 346.545 164.84 343.529C165.252 341.798 165.022 339.961 164.107 338.413L120.818 265.225C119.261 262.591 120.152 259.192 122.802 257.662L219.071 202.081C219.872 201.618 220.56 200.993 221.113 200.261C222.433 198.511 225.35 194.78 229.002 190.932C232.661 187.076 237.023 183.139 241.231 180.943C244.76 179.102 249.496 177.798 253.876 176.903C258.247 176.009 262.223 175.529 264.211 175.323C265.164 175.223 266.087 174.936 266.924 174.453L374.643 112.262C377.327 110.712 380.762 111.685 382.234 114.414L426.999 197.416C428.333 199.89 431.084 201.202 433.84 201.018C436.864 200.816 441.035 200.806 444.905 201.708C448.782 202.611 452.266 204.405 454.06 207.737Z" stroke="white"/>
<path d="M235.265 280.333L338.142 220.937L384.204 300.719L281.327 360.115L235.265 280.333Z" fill="#2E4D4E"/>
<path d="M258.285 283.839L329.669 242.626L361.185 297.213L289.801 338.427L258.285 283.839Z" fill="#2F272C"/>
<path d="M452.352 189.67L467.994 180.639L492.905 223.786L477.263 232.817L452.352 189.67Z" fill="#7D89A6"/>
<path d="M496 264.791L508.371 257.649L533.88 301.833L521.509 308.975L496 264.791Z" fill="#7D89A6"/>
<path d="M414.656 122.99L425.737 116.593L450.748 159.913L439.667 166.31L414.656 122.99Z" fill="#7D89A6"/>
<path d="M56.8555 330.166L69.6634 322.772L94.5888 365.944L81.7808 373.338L56.8555 330.166Z" fill="#7D89A6"/>
<path d="M101.536 407.988L114.701 400.387L139.469 443.286L126.304 450.886L101.536 407.988Z" fill="#7D89A6"/>
<path d="M135 182.055L143.041 177.663L167.42 217.608L159.379 222L135 182.055Z" fill="#7D89A6"/>
<path d="M197.36 148.45L205.402 144.058L229.78 184.004L221.739 188.396L197.36 148.45Z" fill="#7D89A6"/>
<path d="M247.091 120.82L255.133 116.428L279.511 156.374L271.47 160.766L247.091 120.82Z" fill="#7D89A6"/>
<path fill-rule="evenodd" clip-rule="evenodd" d="M152.361 283.409C161.927 277.886 165.205 265.653 159.682 256.087C154.159 246.521 141.926 243.243 132.36 248.766C122.794 254.289 119.516 266.522 125.039 276.088C130.562 285.654 142.795 288.932 152.361 283.409ZM148.65 276.981C154.667 273.508 156.728 265.815 153.255 259.798C149.781 253.782 142.088 251.72 136.071 255.194C130.055 258.668 127.993 266.361 131.467 272.377C134.941 278.394 142.634 280.455 148.65 276.981Z" fill="#EAEAEA"/>
<path fill-rule="evenodd" clip-rule="evenodd" d="M263.635 219.164C273.201 213.641 276.479 201.409 270.956 191.843C265.433 182.277 253.201 178.999 243.635 184.522C234.068 190.045 230.791 202.277 236.314 211.843C241.837 221.41 254.069 224.687 263.635 219.164ZM259.924 212.737C265.94 209.264 268.002 201.57 264.528 195.554C261.055 189.537 253.361 187.476 247.345 190.95C241.328 194.423 239.267 202.116 242.741 208.133C246.214 214.149 253.907 216.211 259.924 212.737Z" fill="#EAEAEA"/>
<path fill-rule="evenodd" clip-rule="evenodd" d="M379.109 152.495C388.675 146.972 391.953 134.74 386.43 125.174C380.907 115.608 368.675 112.33 359.108 117.853C349.542 123.376 346.265 135.608 351.788 145.175C357.311 154.741 369.543 158.018 379.109 152.495ZM375.398 146.068C381.415 142.595 383.476 134.901 380.003 128.885C376.529 122.868 368.836 120.807 362.819 124.281C356.803 127.754 354.742 135.447 358.215 141.464C361.689 147.48 369.382 149.542 375.398 146.068Z" fill="#EAEAEA"/>
<path fill-rule="evenodd" clip-rule="evenodd" d="M447.212 229.353C453.93 225.474 456.232 216.883 452.353 210.165C448.474 203.446 439.883 201.144 433.165 205.023C426.446 208.902 424.144 217.493 428.023 224.212C431.902 230.93 440.493 233.232 447.212 229.353ZM444.606 224.839C448.831 222.4 450.279 216.997 447.839 212.771C445.4 208.546 439.997 207.098 435.771 209.537C431.546 211.977 430.098 217.38 432.537 221.606C434.977 225.831 440.38 227.279 444.606 224.839Z" fill="#EAEAEA"/>
<path fill-rule="evenodd" clip-rule="evenodd" d="M507.322 363.642C516.888 358.119 520.165 345.887 514.642 336.321C509.119 326.755 496.887 323.477 487.321 329C477.755 334.523 474.477 346.756 480 356.322C485.523 365.888 497.756 369.166 507.322 363.642ZM503.473 357.077C509.489 353.603 511.551 345.91 508.077 339.894C504.603 333.877 496.91 331.816 490.894 335.29C484.877 338.763 482.816 346.456 486.29 352.473C489.763 358.489 497.456 360.551 503.473 357.077Z" fill="#EAEAEA"/>
<path fill-rule="evenodd" clip-rule="evenodd" d="M391.919 429.236C401.485 423.713 404.763 411.481 399.24 401.914C393.717 392.348 381.484 389.071 371.918 394.594C362.352 400.117 359.074 412.349 364.597 421.915C370.121 431.481 382.353 434.759 391.919 429.236ZM388.209 422.808C394.226 419.335 396.287 411.641 392.814 405.625C389.34 399.608 381.647 397.547 375.63 401.021C369.614 404.494 367.552 412.188 371.026 418.204C374.5 424.22 382.193 426.282 388.209 422.808Z" fill="#EAEAEA"/>
<path fill-rule="evenodd" clip-rule="evenodd" d="M275.395 496.511C284.961 490.988 288.239 478.755 282.716 469.189C277.193 459.623 264.96 456.345 255.394 461.868C245.828 467.391 242.551 479.624 248.074 489.19C253.597 498.756 265.829 502.034 275.395 496.511ZM271.684 490.083C277.701 486.61 279.762 478.916 276.288 472.9C272.815 466.883 265.122 464.822 259.105 468.296C253.089 471.769 251.027 479.462 254.501 485.479C257.975 491.495 265.668 493.557 271.684 490.083Z" fill="#EAEAEA"/>
<path fill-rule="evenodd" clip-rule="evenodd" d="M205.695 375.788C215.261 370.265 218.539 358.033 213.016 348.466C207.493 338.9 195.261 335.623 185.695 341.146C176.128 346.669 172.851 358.901 178.374 368.467C183.897 378.033 196.129 381.311 205.695 375.788ZM201.985 369.361C208.001 365.887 210.063 358.194 206.589 352.177C203.116 346.161 195.422 344.099 189.406 347.573C183.389 351.047 181.328 358.74 184.802 364.756C188.275 370.773 195.968 372.834 201.985 369.361Z" fill="#EAEAEA"/>
<line x1="289.519" y1="326.123" x2="351.519" y2="292.123" stroke="white" stroke-width="2"/>
<line x1="302.524" y1="305.121" x2="326.524" y2="292.121" stroke="white" stroke-width="2"/>
<line x1="244.848" y1="127.47" x2="254.848" y2="143.47" stroke="white" stroke-width="2"/>
<line x1="292.866" y1="104.5" x2="306.513" y2="128.138" stroke="white" stroke-width="2"/>
<line x1="298.874" y1="101.514" x2="308.874" y2="119.514" stroke="white" stroke-width="2"/>
<line x1="267.519" y1="288.123" x2="329.519" y2="254.123" stroke="#999999" stroke-width="2"/>
<line x1="279.516" y1="294.125" x2="326.516" y2="268.125" stroke="#999999" stroke-width="2"/>
</svg>
