<svg width="151" height="33" viewBox="0 0 151 33" fill="none" xmlns="http://www.w3.org/2000/svg">
<path fill-rule="evenodd" clip-rule="evenodd" d="M4.16003 -7.64456e-05C1.53686 3.38927 1.84421e-05 7.50289 1.92175e-05 11.9377C2.12448e-05 23.5323 10.5051 32.9316 23.4639 32.9316C36.4226 32.9316 46.9277 23.5323 46.9277 11.9377C46.9277 7.50288 45.3909 3.38926 42.7677 -8.3196e-05L4.16003 -7.64456e-05Z" fill="black"/>
<path fill-rule="evenodd" clip-rule="evenodd" d="M107.895 -7.64456e-05C105.272 3.38927 103.735 7.50289 103.735 11.9377C103.735 23.5323 114.24 32.9316 127.199 32.9316C140.157 32.9316 150.663 23.5323 150.663 11.9377C150.663 7.50288 149.126 3.38926 146.503 -8.3196e-05L107.895 -7.64456e-05Z" fill="black"/>
<ellipse cx="15.2309" cy="14.4077" rx="8.64458" ry="7.82129" transform="rotate(180 15.2309 14.4077)" fill="white"/>
<ellipse cx="118.966" cy="14.4077" rx="8.64458" ry="7.82129" transform="rotate(180 118.966 14.4077)" fill="white"/>
</svg>
